<svg width="136" height="40" viewBox="0 0 136 40" fill="none" xmlns="http://www.w3.org/2000/svg">
<g clip-path="url(#clip0_734_9544)">
<path d="M124.296 0.00013H10.8035C10.3898 0.00013 9.98108 0.00013 9.56847 0.00213C9.22309 0.00413 8.88046 0.00994 8.53175 0.01483C7.77421 0.0227318 7.01845 0.0818063 6.27104 0.19154C5.52467 0.303663 4.80169 0.515046 4.12654 0.81854C3.45222 1.1246 2.83607 1.5223 2.30045 1.9972C1.76202 2.47077 1.31319 3.01815 0.971231 3.61829C0.628328 4.21724 0.390558 4.85907 0.266133 5.52161C0.140524 6.18332 0.0729336 6.85265 0.0639666 7.52361C0.0534973 7.83021 0.0523917 8.13783 0.046875 8.44447V31.5587C0.0523917 31.8692 0.0534973 32.17 0.0639666 32.4806C0.0729364 33.1516 0.140527 33.8209 0.266133 34.4825C0.390214 35.1455 0.627999 35.7877 0.971231 36.3868C1.31304 36.985 1.76192 37.5302 2.30045 38.0011C2.83404 38.4781 3.45059 38.8761 4.12654 39.1798C4.80169 39.4841 5.52459 39.6968 6.27104 39.8106C7.01858 39.9195 7.77426 39.9786 8.53175 39.9874C8.88046 39.9942 9.22309 39.9981 9.56847 39.9981C9.98106 40.0001 10.3898 40.0001 10.8035 40.0001H124.296C124.702 40.0001 125.114 40.0001 125.519 39.9981C125.863 39.9981 126.216 39.9942 126.559 39.9874C127.315 39.9791 128.07 39.92 128.816 39.8106C129.564 39.696 130.29 39.4834 130.968 39.1798C131.644 38.8759 132.26 38.478 132.793 38.0011C133.33 37.5284 133.78 36.9836 134.126 36.3868C134.467 35.7872 134.702 35.1451 134.824 34.4825C134.95 33.8208 135.02 33.1516 135.034 32.4806C135.038 32.17 135.038 31.8692 135.038 31.5587C135.047 31.1954 135.047 30.8341 135.047 30.4649V9.53626C135.047 9.17005 135.047 8.80677 135.038 8.44447C135.038 8.13783 135.038 7.83021 135.034 7.52357C135.02 6.85255 134.95 6.18337 134.824 5.52157C134.702 4.85941 134.466 4.21763 134.126 3.61825C133.429 2.41533 132.325 1.43616 130.968 0.81845C130.29 0.515697 129.564 0.30437 128.816 0.19145C128.07 0.0812328 127.315 0.0221378 126.559 0.01469C126.216 0.00981 125.863 0.00395 125.519 0.002C125.114 0 124.702 0 124.296 0V0.00013Z" fill="black"/>
<path d="M9.58909 39.125C9.24536 39.125 8.90993 39.1211 8.5689 39.1143C7.86243 39.1061 7.15761 39.0516 6.46022 38.9512C5.80994 38.8519 5.17999 38.6673 4.59115 38.4033C4.00772 38.1415 3.47558 37.7983 3.01512 37.3867C2.54799 36.98 2.15909 36.5082 1.86382 35.9902C1.5653 35.4688 1.3587 34.9099 1.25123 34.333C1.13517 33.7131 1.07238 33.0863 1.06339 32.458C1.05624 32.2471 1.04688 31.5449 1.04688 31.5449V8.44434C1.04688 8.44434 1.05685 7.75293 1.06345 7.5498C1.07205 6.92248 1.13448 6.29665 1.25019 5.67773C1.35786 5.09925 1.56462 4.53875 1.8633 4.01563C2.15748 3.49794 2.54423 3.02586 3.00854 2.61768C3.47233 2.20562 4.00617 1.8606 4.5906 1.59521C5.17808 1.33209 5.80684 1.14873 6.45581 1.05127C7.15549 0.949836 7.86276 0.894996 8.57168 0.88721L9.58964 0.875H125.529L126.559 0.8877C127.261 0.895099 127.962 0.94945 128.656 1.05029C129.311 1.14898 129.946 1.33362 130.541 1.59814C131.711 2.13299 132.664 2.97916 133.265 4.01807C133.559 4.53758 133.763 5.09351 133.869 5.66699C133.986 6.29099 134.051 6.92174 134.065 7.5542C134.068 7.8374 134.068 8.1416 134.068 8.44434C134.077 8.81934 134.077 9.17627 134.077 9.53613V30.4648C134.077 30.8281 134.077 31.1826 134.068 31.54C134.068 31.8652 134.068 32.1631 134.064 32.4697C134.051 33.0909 133.986 33.7104 133.871 34.3232C133.766 34.9043 133.56 35.4675 133.262 35.9932C132.964 36.5056 132.578 36.9733 132.116 37.3789C131.655 37.7927 131.122 38.1379 130.537 38.4014C129.945 38.6674 129.31 38.8527 128.656 38.9512C127.958 39.0522 127.253 39.1067 126.547 39.1143C126.216 39.1211 125.87 39.125 125.534 39.125L124.311 39.127L9.58909 39.125Z" fill="white"/>
<path d="M33.4345 19.8897C33.4457 19.0217 33.6763 18.1707 34.1047 17.4158C34.5332 16.6609 35.1456 16.0266 35.8851 15.572C35.4154 14.9011 34.7956 14.349 34.0752 13.9595C33.3547 13.57 32.5533 13.3538 31.7347 13.3282C29.9885 13.1449 28.2956 14.3731 27.4057 14.3731C26.4987 14.3731 25.1286 13.3464 23.6533 13.3768C22.699 13.4076 21.7689 13.6851 20.9538 14.1822C20.1386 14.6794 19.4662 15.3792 19.0019 16.2135C16.9908 19.6955 18.4909 24.8129 20.4174 27.6275C21.3813 29.0057 22.5078 30.5452 23.9818 30.4906C25.4242 30.4308 25.9629 29.5709 27.704 29.5709C29.4289 29.5709 29.9343 30.4906 31.4382 30.4559C32.986 30.4308 33.9612 29.0716 34.8912 27.6803C35.5838 26.6982 36.1167 25.6129 36.4702 24.4644C35.571 24.0841 34.8037 23.4475 34.2638 22.634C33.724 21.8204 33.4356 20.866 33.4345 19.8897Z" fill="black"/>
<path d="M30.5948 11.4775C31.4387 10.4645 31.8545 9.16233 31.7538 7.84766C30.4645 7.98307 29.2736 8.59927 28.4183 9.57348C28.0001 10.0494 27.6798 10.6031 27.4757 11.2029C27.2716 11.8026 27.1878 12.4368 27.2289 13.069C27.8738 13.0756 28.5118 12.9358 29.0948 12.6602C29.6778 12.3845 30.1907 11.9802 30.5948 11.4775Z" fill="black"/>
<path d="M50.7383 27.1407H46.0049L44.8682 30.4971H42.8633L47.3467 18.0791H49.4297L53.9131 30.4971H51.874L50.7383 27.1407ZM46.4951 25.5918H50.2471L48.3975 20.1446H48.3457L46.4951 25.5918Z" fill="black"/>
<path d="M63.5948 25.9704C63.5948 28.7839 62.0889 30.5915 59.8164 30.5915C59.2408 30.6216 58.6683 30.489 58.1645 30.2089C57.6607 29.9288 57.246 29.5124 56.9678 29.0075H56.9248V33.4919H55.0664V21.4431H56.8652V22.9489H56.8994C57.1904 22.4465 57.6121 22.0323 58.1197 21.7504C58.6274 21.4686 59.2019 21.3296 59.7822 21.3483C62.0801 21.3484 63.5948 23.1648 63.5948 25.9704ZM61.6846 25.9704C61.6846 24.1374 60.7373 22.9323 59.292 22.9323C57.8721 22.9323 56.917 24.1628 56.917 25.9704C56.917 27.7946 57.8721 29.0163 59.292 29.0163C60.7373 29.0163 61.6846 27.82 61.6846 25.9704H61.6846Z" fill="black"/>
<path d="M73.5601 25.9704C73.5601 28.7839 72.0537 30.5915 69.7813 30.5915C69.2056 30.6216 68.6331 30.489 68.1293 30.2089C67.6255 29.9288 67.2108 29.5124 66.9326 29.0075H66.8896V33.4919H65.0312V21.4431H66.8301V22.9489H66.8643C67.1552 22.4465 67.5769 22.0323 68.0846 21.7504C68.5922 21.4686 69.1667 21.3296 69.7471 21.3483C72.045 21.3484 73.5601 23.1648 73.5601 25.9704ZM71.6494 25.9704C71.6494 24.1374 70.7022 22.9323 69.2569 22.9323C67.8369 22.9323 66.8819 24.1628 66.8819 25.9704C66.8819 27.7946 67.8369 29.0163 69.2569 29.0163C70.7022 29.0163 71.6494 27.82 71.6494 25.9704Z" fill="black"/>
<path d="M80.1446 27.0372C80.2823 28.2686 81.4786 29.0772 83.1133 29.0772C84.6797 29.0772 85.8067 28.2686 85.8067 27.1582C85.8067 26.1943 85.127 25.6172 83.5176 25.2217L81.9083 24.834C79.628 24.2832 78.5694 23.2168 78.5694 21.4863C78.5694 19.3438 80.4366 17.8721 83.087 17.8721C85.712 17.8721 87.5108 19.3438 87.5714 21.4863H85.6954C85.5831 20.2471 84.5586 19.499 83.0616 19.499C81.5645 19.499 80.5401 20.2559 80.5401 21.3574C80.5401 22.2354 81.1944 22.752 82.795 23.1474L84.1631 23.4834C86.711 24.0859 87.7686 25.1094 87.7686 26.9258C87.7686 29.249 85.919 30.7041 82.9756 30.7041C80.2217 30.7041 78.3623 29.2832 78.2422 27.0371L80.1446 27.0372Z" fill="black"/>
<path d="M91.7832 19.3008V21.4434H93.5049V22.915H91.7832V27.9062C91.7832 28.6816 92.1279 29.043 92.8848 29.043C93.0891 29.0394 93.2932 29.0251 93.4961 29V30.4629C93.1558 30.5264 92.81 30.5552 92.4639 30.5488C90.6309 30.5488 89.916 29.8603 89.916 28.1045V22.915H88.5996V21.4434H89.916V19.3008H91.7832Z" fill="black"/>
<path d="M94.5 25.9707C94.5 23.1221 96.1777 21.332 98.7939 21.332C101.419 21.332 103.089 23.122 103.089 25.9707C103.089 28.8272 101.428 30.6094 98.7939 30.6094C96.1611 30.6094 94.5 28.8271 94.5 25.9707ZM101.195 25.9707C101.195 24.0166 100.3 22.8633 98.7939 22.8633C97.2881 22.8633 96.3926 24.0254 96.3926 25.9707C96.3926 27.9326 97.2881 29.0772 98.7939 29.0772C100.3 29.0772 101.195 27.9326 101.195 25.9707H101.195Z" fill="black"/>
<path d="M104.621 21.443H106.394V22.984H106.437C106.556 22.5027 106.838 22.0774 107.235 21.7795C107.632 21.4816 108.119 21.3293 108.614 21.3483C108.828 21.3475 109.042 21.3708 109.251 21.4176V23.1559C108.981 23.0733 108.699 23.0353 108.416 23.0436C108.146 23.0326 107.877 23.0802 107.627 23.1831C107.377 23.286 107.153 23.4417 106.969 23.6396C106.785 23.8375 106.646 24.0729 106.561 24.3295C106.477 24.5862 106.449 24.8581 106.479 25.1266V30.4967H104.621L104.621 21.443Z" fill="black"/>
<path d="M117.819 27.8379C117.569 29.4814 115.969 30.6094 113.921 30.6094C111.287 30.6094 109.652 28.8447 109.652 26.0137C109.652 23.1738 111.296 21.332 113.843 21.332C116.348 21.332 117.923 23.0527 117.923 25.7978V26.4346H111.528V26.5469C111.499 26.8801 111.541 27.2157 111.651 27.5316C111.761 27.8474 111.937 28.1362 112.167 28.3787C112.398 28.6213 112.677 28.8121 112.987 28.9384C113.297 29.0647 113.63 29.1236 113.964 29.1113C114.403 29.1525 114.844 29.0508 115.22 28.8213C115.597 28.5919 115.89 28.247 116.055 27.8379L117.819 27.8379ZM111.537 25.1357H116.063C116.08 24.8361 116.035 24.5363 115.93 24.2551C115.825 23.9739 115.664 23.7174 115.455 23.5016C115.247 23.2858 114.996 23.1155 114.718 23.0013C114.441 22.8871 114.143 22.8314 113.843 22.8379C113.54 22.8361 113.24 22.8942 112.96 23.009C112.68 23.1237 112.426 23.2928 112.211 23.5064C111.997 23.72 111.827 23.974 111.711 24.2537C111.595 24.5333 111.536 24.8331 111.537 25.1357V25.1357Z" fill="black"/>
<path d="M46.2646 8.73138C46.6543 8.70342 47.0452 8.76228 47.4093 8.90371C47.7734 9.04515 48.1016 9.26563 48.3702 9.54925C48.6388 9.83288 48.8411 10.1726 48.9625 10.5438C49.0839 10.9151 49.1214 11.3087 49.0723 11.6962C49.0723 13.6025 48.042 14.6982 46.2646 14.6982H44.1094V8.73138H46.2646ZM45.0361 13.8544H46.1611C46.4395 13.871 46.7181 13.8254 46.9767 13.7208C47.2352 13.6161 47.4672 13.4552 47.6557 13.2496C47.8442 13.0441 47.9844 12.7991 48.0663 12.5324C48.1482 12.2658 48.1696 11.9843 48.1289 11.7084C48.1666 11.4335 48.1431 11.1538 48.0599 10.8891C47.9768 10.6244 47.8362 10.3814 47.6481 10.1775C47.4601 9.97358 47.2292 9.81378 46.9721 9.70954C46.7151 9.6053 46.4381 9.55922 46.1611 9.57459H45.0361V13.8544Z" fill="black"/>
<path d="M50.1194 12.4448C50.0911 12.1489 50.125 11.8503 50.2188 11.5682C50.3126 11.2862 50.4644 11.0268 50.6643 10.8068C50.8643 10.5868 51.108 10.4111 51.3798 10.2908C51.6517 10.1705 51.9457 10.1084 52.243 10.1084C52.5402 10.1084 52.8342 10.1705 53.1061 10.2908C53.3779 10.4111 53.6216 10.5868 53.8216 10.8068C54.0215 11.0268 54.1733 11.2862 54.2671 11.5682C54.361 11.8503 54.3948 12.1489 54.3665 12.4448C54.3953 12.741 54.3619 13.04 54.2683 13.3225C54.1747 13.605 54.023 13.8648 53.823 14.0853C53.6231 14.3057 53.3792 14.4818 53.107 14.6023C52.8349 14.7229 52.5406 14.7851 52.243 14.7851C51.9453 14.7851 51.651 14.7229 51.3789 14.6023C51.1068 14.4818 50.8629 14.3057 50.6629 14.0853C50.4629 13.8648 50.3112 13.605 50.2176 13.3225C50.124 13.04 50.0906 12.741 50.1194 12.4448ZM53.4524 12.4448C53.4524 11.4687 53.0139 10.8979 52.2444 10.8979C51.472 10.8979 51.0374 11.4687 51.0374 12.4448C51.0374 13.4287 51.472 13.9951 52.2444 13.9951C53.014 13.9951 53.4524 13.4248 53.4524 12.4448H53.4524Z" fill="black"/>
<path d="M60.0117 14.6982H59.0898L58.1592 11.3818H58.0889L57.1621 14.6982H56.249L55.0078 10.1953H55.9092L56.7158 13.6313H56.7822L57.708 10.1953H58.5606L59.4863 13.6313H59.5566L60.3594 10.1953H61.248L60.0117 14.6982Z" fill="black"/>
<path d="M62.293 10.1949H63.1484V10.9102H63.2148C63.3275 10.6533 63.5175 10.4379 63.7584 10.2941C63.9992 10.1503 64.279 10.0852 64.5586 10.1079C64.7777 10.0915 64.9977 10.1245 65.2023 10.2046C65.4069 10.2847 65.5908 10.4098 65.7405 10.5707C65.8902 10.7315 66.0018 10.924 66.067 11.1338C66.1322 11.3436 66.1493 11.5654 66.1172 11.7827V14.6977H65.2285V12.0059C65.2285 11.2823 64.9141 10.9224 64.2568 10.9224C64.1081 10.9155 63.9596 10.9408 63.8215 10.9966C63.6835 11.0525 63.5591 11.1375 63.457 11.2459C63.3549 11.3543 63.2774 11.4834 63.2299 11.6246C63.1823 11.7657 63.1659 11.9154 63.1816 12.0635V14.6978H62.293L62.293 10.1949Z" fill="black"/>
<path d="M67.5312 8.4375H68.4199V14.6982H67.5312V8.4375Z" fill="black"/>
<path d="M69.6565 12.4449C69.6282 12.1489 69.6621 11.8503 69.756 11.5683C69.8498 11.2862 70.0016 11.0268 70.2016 10.8068C70.4015 10.5869 70.6453 10.4111 70.9171 10.2908C71.189 10.1705 71.483 10.1084 71.7803 10.1084C72.0776 10.1084 72.3716 10.1705 72.6435 10.2908C72.9153 10.4111 73.159 10.5869 73.359 10.8068C73.559 11.0268 73.7108 11.2862 73.8046 11.5683C73.8985 11.8503 73.9324 12.1489 73.9041 12.4449C73.9329 12.7411 73.8994 13.0401 73.8058 13.3226C73.7122 13.6051 73.5605 13.8649 73.3604 14.0853C73.1604 14.3058 72.9165 14.4819 72.6444 14.6024C72.3723 14.7229 72.0779 14.7852 71.7803 14.7852C71.4827 14.7852 71.1883 14.7229 70.9162 14.6024C70.644 14.4819 70.4001 14.3058 70.2001 14.0853C70.0001 13.8649 69.8484 13.6051 69.7548 13.3226C69.6612 13.0401 69.6277 12.7411 69.6565 12.4449ZM72.9895 12.4449C72.9895 11.4688 72.551 10.898 71.7815 10.898C71.009 10.898 70.5745 11.4688 70.5745 12.4449C70.5745 13.4288 71.0091 13.9952 71.7815 13.9952C72.551 13.9952 72.9895 13.4248 72.9895 12.4449H72.9895Z" fill="black"/>
<path d="M74.8398 13.4248C74.8398 12.6142 75.4434 12.147 76.5146 12.0806L77.7344 12.0102V11.6216C77.7344 11.146 77.4199 10.8774 76.8125 10.8774C76.3164 10.8774 75.9727 11.0596 75.874 11.3779H75.0137C75.1045 10.6045 75.832 10.1084 76.8535 10.1084C77.9824 10.1084 78.6191 10.6704 78.6191 11.6216V14.6982H77.7637V14.0654H77.6934C77.5506 14.2924 77.3502 14.4775 77.1126 14.6017C76.875 14.7259 76.6087 14.7848 76.3408 14.7724C76.1518 14.7921 75.9607 14.7719 75.78 14.7132C75.5992 14.6545 75.4328 14.5586 75.2913 14.4316C75.1499 14.3047 75.0367 14.1495 74.9589 13.9761C74.8812 13.8026 74.8406 13.6149 74.8398 13.4248ZM77.7344 13.04V12.6636L76.6348 12.7339C76.0146 12.7754 75.7334 12.9863 75.7334 13.3833C75.7334 13.7886 76.0849 14.0244 76.5684 14.0244C76.71 14.0387 76.8531 14.0244 76.9891 13.9823C77.1251 13.9403 77.2513 13.8712 77.3601 13.7794C77.4688 13.6876 77.558 13.5748 77.6224 13.4477C77.6867 13.3207 77.7248 13.1821 77.7344 13.04Z" fill="black"/>
<path d="M79.7852 12.4448C79.7852 11.022 80.5166 10.1206 81.6543 10.1206C81.9357 10.1077 82.215 10.1751 82.4595 10.315C82.7041 10.4548 82.9037 10.6615 83.0352 10.9106H83.1016V8.4375H83.9902V14.6982H83.1387V13.9868H83.0684C82.9268 14.2343 82.7201 14.4383 82.4709 14.5768C82.2216 14.7153 81.9392 14.783 81.6543 14.7724C80.5088 14.7725 79.7852 13.8711 79.7852 12.4448ZM80.7032 12.4448C80.7032 13.3999 81.1534 13.9746 81.9063 13.9746C82.6553 13.9746 83.1182 13.3916 83.1182 12.4487C83.1182 11.5103 82.6504 10.919 81.9063 10.919C81.1582 10.919 80.7031 11.4976 80.7031 12.4448H80.7032Z" fill="black"/>
<path d="M87.6682 12.4448C87.6399 12.1489 87.6738 11.8503 87.7676 11.5682C87.8615 11.2862 88.0132 11.0268 88.2132 10.8068C88.4131 10.5868 88.6568 10.4111 88.9287 10.2908C89.2005 10.1705 89.4945 10.1084 89.7918 10.1084C90.0891 10.1084 90.383 10.1705 90.6549 10.2908C90.9267 10.4111 91.1704 10.5868 91.3704 10.8068C91.5703 11.0268 91.7221 11.2862 91.8159 11.5682C91.9098 11.8503 91.9436 12.1489 91.9153 12.4448C91.9442 12.741 91.9107 13.04 91.8171 13.3225C91.7235 13.605 91.5719 13.8648 91.3719 14.0853C91.1719 14.3057 90.928 14.4818 90.6559 14.6023C90.3837 14.7229 90.0894 14.7851 89.7918 14.7851C89.4942 14.7851 89.1998 14.7229 88.9277 14.6023C88.6556 14.4818 88.4117 14.3057 88.2117 14.0853C88.0117 13.8648 87.86 13.605 87.7664 13.3225C87.6728 13.04 87.6394 12.741 87.6682 12.4448ZM91.0012 12.4448C91.0012 11.4687 90.5628 10.8979 89.7932 10.8979C89.0208 10.8979 88.5862 11.4687 88.5862 12.4448C88.5862 13.4287 89.0208 13.9951 89.7932 13.9951C90.5628 13.9951 91.0012 13.4248 91.0012 12.4448Z" fill="black"/>
<path d="M93.1074 10.1949H93.9629V10.9102H94.0293C94.142 10.6533 94.332 10.4379 94.5728 10.2941C94.8137 10.1503 95.0934 10.0852 95.3731 10.1079C95.5922 10.0915 95.8121 10.1245 96.0167 10.2046C96.2213 10.2847 96.4053 10.4098 96.555 10.5707C96.7047 10.7315 96.8162 10.924 96.8814 11.1338C96.9466 11.3436 96.9638 11.5654 96.9316 11.7827V14.6977H96.043V12.0059C96.043 11.2823 95.7285 10.9224 95.0713 10.9224C94.9225 10.9155 94.774 10.9408 94.636 10.9966C94.4979 11.0525 94.3736 11.1375 94.2714 11.2459C94.1693 11.3543 94.0918 11.4834 94.0443 11.6246C93.9968 11.7657 93.9803 11.9154 93.9961 12.0635V14.6978H93.1074V10.1949Z" fill="black"/>
<path d="M101.954 9.07422V10.2158H102.93V10.9644H101.954V13.2798C101.954 13.7515 102.148 13.958 102.591 13.958C102.704 13.9576 102.817 13.9508 102.93 13.9375V14.6777C102.77 14.7063 102.608 14.7215 102.446 14.7231C101.458 14.7231 101.064 14.3755 101.064 13.5073V10.9643H100.35V10.2158H101.064V9.07422H101.954Z" fill="black"/>
<path d="M104.143 8.4375H105.023V10.919H105.094C105.212 10.6596 105.407 10.443 105.653 10.2987C105.898 10.1543 106.183 10.0893 106.467 10.1123C106.685 10.1004 106.903 10.1368 107.105 10.2189C107.307 10.3009 107.489 10.4266 107.637 10.5869C107.785 10.7473 107.896 10.9383 107.962 11.1465C108.028 11.3546 108.047 11.5747 108.018 11.791V14.6982H107.128V12.0103C107.128 11.291 106.793 10.9268 106.165 10.9268C106.012 10.9142 105.859 10.9352 105.715 10.9883C105.571 11.0413 105.441 11.1252 105.333 11.2339C105.225 11.3426 105.142 11.4737 105.09 11.6178C105.038 11.7619 105.018 11.9157 105.031 12.0683V14.6982H104.143L104.143 8.4375Z" fill="black"/>
<path d="M113.199 13.4825C113.078 13.894 112.817 14.25 112.46 14.4882C112.103 14.7263 111.674 14.8315 111.248 14.7852C110.951 14.7931 110.656 14.7362 110.384 14.6187C110.111 14.5012 109.868 14.3258 109.67 14.1046C109.472 13.8835 109.324 13.6219 109.238 13.3381C109.151 13.0543 109.127 12.755 109.168 12.461C109.128 12.1661 109.152 11.8662 109.239 11.5815C109.325 11.2969 109.472 11.0341 109.669 10.811C109.866 10.5879 110.108 10.4098 110.38 10.2886C110.652 10.1674 110.946 10.1059 111.244 10.1085C112.497 10.1085 113.253 10.9645 113.253 12.3785V12.6886H110.073V12.7384C110.059 12.9036 110.08 13.0699 110.134 13.2267C110.188 13.3834 110.274 13.5271 110.387 13.6486C110.5 13.7701 110.637 13.8666 110.79 13.932C110.942 13.9974 111.106 14.0302 111.272 14.0284C111.485 14.0539 111.7 14.0156 111.891 13.9184C112.082 13.8212 112.239 13.6694 112.343 13.4825L113.199 13.4825ZM110.073 12.0313H112.347C112.359 11.8802 112.338 11.7284 112.287 11.5857C112.236 11.443 112.156 11.3125 112.051 11.2026C111.947 11.0928 111.821 11.006 111.681 10.9478C111.541 10.8896 111.39 10.8614 111.239 10.8648C111.085 10.8629 110.933 10.8918 110.79 10.9497C110.648 11.0076 110.519 11.0935 110.41 11.2022C110.301 11.3109 110.215 11.4403 110.158 11.5827C110.1 11.7251 110.071 11.8776 110.073 12.0313H110.073Z" fill="black"/>
</g>
<defs>
<clipPath id="clip0_734_9544">
<rect width="135" height="40" fill="white" transform="translate(0.046875)"/>
</clipPath>
</defs>
</svg>
