<svg width="68" height="68" viewBox="0 0 68 68" fill="none" xmlns="http://www.w3.org/2000/svg">
<circle cx="33.7893" cy="33.7893" r="33.7893" fill="#AA94DB"/>
<g clip-path="url(#clip0_143_63)">
<path d="M42.6504 45.2682C42.6504 45.6723 42.3228 45.9999 41.9187 45.9999H26.0163C25.6122 45.9999 25.2846 45.6723 25.2846 45.2682V43.7072C25.2846 43.3031 25.6122 42.9755 26.0163 42.9755H41.9187C42.3228 42.9755 42.6504 43.3031 42.6504 43.7072V45.2682ZM45.5851 22.0722C45.2882 21.93 44.9331 22.0029 44.7169 22.2507L38.9128 28.9043L34.6124 22.3311C34.4771 22.1246 34.2468 22 34 22C33.7532 22 33.5228 22.1245 33.3877 22.3311L29.0856 28.9068L23.2817 22.2939C23.0648 22.0469 22.71 21.9746 22.4137 22.1175C22.1177 22.2604 21.9532 22.5831 22.0117 22.9066L25.2312 40.7154C25.2942 41.0637 25.5973 41.317 25.9512 41.317H42.0487C42.4028 41.317 42.706 41.0635 42.7688 40.7151L45.9883 22.8616C46.0468 22.5378 45.8817 22.2146 45.5851 22.0722Z" fill="white"/>
</g>
<defs>
<clipPath id="clip0_143_63">
<rect width="24" height="24" fill="white" transform="translate(22 22)"/>
</clipPath>
</defs>
</svg>
