<svg xmlns="http://www.w3.org/2000/svg" xmlns:xlink="http://www.w3.org/1999/xlink" width="166.765" height="42" viewBox="0 0 166.765 42"><defs><style>.a{fill:url(#a);}.b{fill:url(#b);}.c{fill:url(#c);}.d{fill:url(#d);}.e{fill:url(#e);}.f{fill:url(#f);}.g{fill:url(#g);}.h{fill:url(#h);}</style><linearGradient id="a" x1="0.5" y1="0.905" x2="0.5" y2="-0.796" gradientUnits="objectBoundingBox"><stop offset="0" stop-color="#0060ad"/><stop offset="0.29" stop-color="#4fc2e1"/><stop offset="0.343" stop-color="#4ec1dd"/><stop offset="0.396" stop-color="#4ebfd1"/><stop offset="0.448" stop-color="#4dbcbd"/><stop offset="0.5" stop-color="#4cb8a1"/><stop offset="0.552" stop-color="#4ab27d"/><stop offset="0.604" stop-color="#48ac52"/><stop offset="0.633" stop-color="#47a836"/></linearGradient><linearGradient id="b" x1="0.883" y1="0.5" x2="0.142" y2="0.5" gradientUnits="objectBoundingBox"><stop offset="0" stop-color="#0060ad"/><stop offset="0.443" stop-color="#284398"/><stop offset="1" stop-color="#611d7d"/></linearGradient><linearGradient id="c" x1="0.884" y1="0.5" x2="0.106" y2="0.5" gradientUnits="objectBoundingBox"><stop offset="0" stop-color="#821657"/><stop offset="1" stop-color="#e32272"/></linearGradient><linearGradient id="d" x1="0.09" y1="0.5" x2="0.874" y2="0.5" gradientUnits="objectBoundingBox"><stop offset="0" stop-color="#ffa32d"/><stop offset="0.544" stop-color="#f77c20"/><stop offset="1" stop-color="#ffb734"/></linearGradient><linearGradient id="e" x1="0.711" y1="0.094" x2="0.11" y2="0.839" gradientUnits="objectBoundingBox"><stop offset="0.423" stop-color="#0099da"/><stop offset="0.576" stop-color="#0093d5"/><stop offset="0.771" stop-color="#0083c8"/><stop offset="0.987" stop-color="#0069b2"/><stop offset="1" stop-color="#0068b1"/></linearGradient><linearGradient id="f" x1="0.051" y1="0.5" x2="0.896" y2="0.5" gradientUnits="objectBoundingBox"><stop offset="0" stop-color="#2a883f"/><stop offset="1" stop-color="#80b940"/></linearGradient><linearGradient id="g" x1="0.5" y1="0.665" x2="0.5" y2="-0.407" gradientUnits="objectBoundingBox"><stop offset="0" stop-color="#e71a28"/><stop offset="0.891" stop-color="#991823"/></linearGradient><linearGradient id="h" x1="0.5" y1="1" x2="0.5" gradientUnits="objectBoundingBox"><stop offset="0" stop-color="#313133"/><stop offset="0.091" stop-color="#38383a"/><stop offset="0.336" stop-color="#48484a"/><stop offset="0.615" stop-color="#515254"/><stop offset="1" stop-color="#545557"/></linearGradient></defs><g transform="translate(-332.447 -103.165)"><path class="a" d="M379.939,121.93V109.949a5.706,5.706,0,0,0-5.707,5.705v6.276c0,.031,0,.062,0,.092h5.708C379.938,121.992,379.939,121.962,379.939,121.93Z" transform="translate(13.061 2.127)"/><path class="b" d="M378.55,119.187A6.275,6.275,0,0,1,366,119.1H360.3a11.982,11.982,0,0,0,23.963.092Z" transform="translate(8.714 4.994)"/><path class="c" d="M364.614,119.147a6.272,6.272,0,0,1-12.545-.01h-5.705a11.978,11.978,0,0,0,23.955.01Z" transform="translate(4.315 5.007)"/><path class="d" d="M358.338,110.089a11.912,11.912,0,0,0-11.974,11.853h5.705a6.273,6.273,0,0,1,12.545.01h5.705A11.928,11.928,0,0,0,358.338,110.089Z" transform="translate(4.315 2.171)"/><path class="e" d="M352.894,113.457a11.956,11.956,0,0,0-8.467-3.5h-.007a11.96,11.96,0,0,0-11.974,11.976h5.7a6.273,6.273,0,0,1,6.274-6.276h.007a6.342,6.342,0,0,1,1.93.307l-4.949,4.949-2.957,2.957a6.274,6.274,0,0,0,4.035,4.034l3.072-3.072,4.833-4.833,4.277-4.277A12.016,12.016,0,0,0,352.894,113.457Z" transform="translate(0 2.134)"/><path class="f" d="M348.859,123.533a6.273,6.273,0,0,1-10.712-4.438h-5.7a11.975,11.975,0,0,0,20.447,8.473,11.807,11.807,0,0,0,3.49-8.418h-5.705A6.112,6.112,0,0,1,348.859,123.533Z" transform="translate(0 4.994)"/><path class="g" d="M4.355,0h1.35a0,0,0,0,1,0,0V19.21a0,0,0,0,1,0,0H0a0,0,0,0,1,0,0V4.355A4.355,4.355,0,0,1,4.355,0Z" transform="translate(369 104.89)"/><g transform="translate(394.942 103.165)"><path class="h" d="M389.573,142.78q-4.852,0-7.256-1.41a4.463,4.463,0,0,1-2.405-4.064,4.953,4.953,0,0,1,1.245-3.317,10.227,10.227,0,0,1,3.648-2.53l.042.664a4.079,4.079,0,0,1-2.032-.561,1.53,1.53,0,0,1-.7-1.347,2.743,2.743,0,0,1,.083-.664,8.773,8.773,0,0,1,.312-.933q.226-.6.7-1.617t1.222-2.675l.084.58a6.772,6.772,0,0,1-2.737-2.591,7.559,7.559,0,0,1-.954-3.876,7.259,7.259,0,0,1,2.384-5.722,9.557,9.557,0,0,1,6.571-2.116,10.94,10.94,0,0,1,4.852,1l-.913-.207,6.511-.291.041,1.991-3.855.745.289-.5a5.413,5.413,0,0,1,1.327,2.031,7.689,7.689,0,0,1,.456,2.737,7.221,7.221,0,0,1-2.446,5.764,9.609,9.609,0,0,1-6.51,2.114,11.3,11.3,0,0,1-4.272-.787l.747-.373-1.078,5.431-.7-.414h8.127a9.974,9.974,0,0,1,6.054,1.555,5.234,5.234,0,0,1,2.073,4.457A5.756,5.756,0,0,1,397.722,141Q394.963,142.779,389.573,142.78Zm.291-2.53a11.713,11.713,0,0,0,5.6-1.036,3.361,3.361,0,0,0,1.824-3.11,3.123,3.123,0,0,0-1.368-2.758,7.34,7.34,0,0,0-4.106-.933H385.22l.954-.207q-3.319,2.073-3.317,4.478a2.861,2.861,0,0,0,1.72,2.675A11.993,11.993,0,0,0,389.864,140.25Zm-.331-16.585a5.748,5.748,0,0,0,4.146-1.431,5.339,5.339,0,0,0,1.492-4.043,5.157,5.157,0,0,0-1.41-3.939,6.761,6.761,0,0,0-8.127.062,5.338,5.338,0,0,0-1.452,4.043,5.283,5.283,0,0,0,1.39,3.939A5.4,5.4,0,0,0,389.533,123.665Z" transform="translate(-379.912 -100.78)"/><path class="h" d="M396.625,132.949v-1.789l3.648-.79-.415.624V113.059l.457.624-3.69-.791V111.1l5.8-.291.456,4.078-.456-.167a18.222,18.222,0,0,1,3.648-3.038,7.38,7.38,0,0,1,3.9-1.082,10.077,10.077,0,0,1,2.777.417l-.249,6.075h-2.072l-.5-4.369.373.748a4.14,4.14,0,0,0-.622-.124,5.363,5.363,0,0,0-.664-.042,5.868,5.868,0,0,0-3.212,1,14.479,14.479,0,0,0-2.966,2.581l.333-1v15.106l-.5-.624,4.52.79v1.789Z" transform="translate(-374.731 -100.859)"/><path class="h" d="M425.724,131.075l-.538-.749,3.815.749v1.831l-5.806.25-.5-4,.291.125a13.031,13.031,0,0,1-3.939,3.017,9.421,9.421,0,0,1-4.1,1.019,5.75,5.75,0,0,1-4.064-1.539,6.058,6.058,0,0,1-1.659-4.66,5.946,5.946,0,0,1,1.036-3.765,5.532,5.532,0,0,1,2.861-1.852,14.929,14.929,0,0,1,4.229-.54h5.433l-.373.415v-3.994a3.983,3.983,0,0,0-1.2-3.267,5.121,5.121,0,0,0-3.317-.978,13.539,13.539,0,0,0-2.384.229,17.383,17.383,0,0,0-2.675.728l.5-.54-.414,3.786h-2.2l-.331-5.16A34.615,34.615,0,0,1,414.82,111a20.528,20.528,0,0,1,3.815-.4,8.243,8.243,0,0,1,5.2,1.478,5.631,5.631,0,0,1,1.886,4.723Zm-13.143-4.244a4.044,4.044,0,0,0,.973,3,3.379,3.379,0,0,0,2.468.957,7.193,7.193,0,0,0,3.212-.9,15.068,15.068,0,0,0,3.422-2.435l-.249.874v-5.575l.373.375h-4.935a6.97,6.97,0,0,0-4.1.894A3.322,3.322,0,0,0,412.581,126.832Z" transform="translate(-370.825 -100.859)"/><path class="h" d="M424.687,142.406v-1.783l3.773-.87-.538.621V113.133l.5.54-3.732-.789V111.1l5.8-.29.415,3.607-.373-.248a14.918,14.918,0,0,1,3.815-2.675,8.851,8.851,0,0,1,3.773-.892,7.119,7.119,0,0,1,4.167,1.286,8.677,8.677,0,0,1,2.924,3.711,14.639,14.639,0,0,1,1.078,5.95,14.292,14.292,0,0,1-1.306,6.427,9.111,9.111,0,0,1-3.671,3.959,11.02,11.02,0,0,1-5.556,1.348,14.7,14.7,0,0,1-2.405-.207q-1.244-.208-2.612-.54l.5-.456v8.292l-.456-.58,4.271.829v1.783Zm10.7-11.609a6.726,6.726,0,0,0,5.557-2.363,10.167,10.167,0,0,0,1.906-6.551,12.81,12.81,0,0,0-.766-4.686,7.05,7.05,0,0,0-2.093-3.007,4.729,4.729,0,0,0-3.027-1.057,6.788,6.788,0,0,0-3.007.768,12.094,12.094,0,0,0-3.131,2.342l.415-1.036v15.549l-.456-.747A15.565,15.565,0,0,0,435.385,130.8Z" transform="translate(-366.031 -100.78)"/><path class="h" d="M441.18,135.175v-1.783l3.773-.829-.5.622v-27.78l.5.663-3.773-.829v-1.783l6.593-.291v14.016l-.747-.166a13.592,13.592,0,0,1,4.292-3.11,10.671,10.671,0,0,1,4.292-1,7.056,7.056,0,0,1,3.275.747,5.25,5.25,0,0,1,2.26,2.26,8.088,8.088,0,0,1,.808,3.836v13.434l-.414-.58,3.648.787v1.783h-9.661v-1.783l3.566-.787-.456.622V120.5a5.037,5.037,0,0,0-1.161-3.774,4.266,4.266,0,0,0-3.152-1.2,8.123,8.123,0,0,0-3.317.829,11.535,11.535,0,0,0-3.524,2.612l.291-.7v14.968l-.415-.58,3.524.745v1.783Z" transform="translate(-360.917 -103.165)"/></g></g></svg>