<svg xmlns="http://www.w3.org/2000/svg" xmlns:xlink="http://www.w3.org/1999/xlink" width="249" height="452" fill="none" xmlns:v="https://vecta.io/nano"><style><![CDATA[.B{stroke-width:2}.C{stroke-width:.458}.D{fill:#6d6d6d}.E{stroke-opacity:.3}.F{stroke-width:.621}]]></style><rect x=".5" y=".5" width="248" height="451" rx="19.5" fill="#fff" stroke="url(#A)"/><g stroke="#ededed" class="F"><path d="M48 298.69h181m-182 29h181m-181 59h181"/><path d="M47 356.69h181m-181 59h181"/></g><g fill="#000"><path d="M27.455 250.878v.429c0 .591-.077 1.12-.231 1.589s-.374.868-.66 1.197a2.85 2.85 0 0 1-1.02.757c-.397.171-.837.257-1.32.257s-.918-.086-1.315-.257-.735-.428-1.025-.757-.515-.728-.676-1.197-.236-.998-.236-1.589v-.429c0-.591.079-1.119.236-1.584s.379-.868.666-1.197a2.87 2.87 0 0 1 1.025-.757c.397-.175.836-.263 1.315-.263a3.24 3.24 0 0 1 1.32.263c.397.172.739.424 1.025.757s.506.728.66 1.197.236.993.236 1.584zm-1.347.429v-.44c0-.437-.043-.821-.129-1.154s-.206-.617-.37-.843-.36-.401-.596-.515-.503-.177-.8-.177-.562.059-.794.177-.431.286-.596.515-.285.507-.37.843-.129.717-.129 1.154v.44c0 .437.043.823.129 1.159s.211.621.376.854.369.403.601.521.497.171.794.171.567-.057.8-.171.429-.292.59-.521.283-.517.365-.854.129-.722.129-1.159zm4.455 2.668l1.422-4.783h1.342L31.309 255h-.837l.091-1.025zm-1.09-4.783l1.449 4.804.07 1.004h-.837l-2.029-5.808h1.347zm7.139 5.915c-.429 0-.818-.069-1.165-.209a2.57 2.57 0 0 1-.88-.596c-.24-.254-.424-.553-.553-.896a3.14 3.14 0 0 1-.193-1.111v-.215c0-.454.066-.866.199-1.235s.317-.683.553-.944a2.38 2.38 0 0 1 .837-.607c.322-.139.671-.209 1.047-.209.415 0 .778.07 1.09.209s.569.337.773.591.361.549.462.896.156.73.156 1.149v.553h-4.487v-.929h3.21v-.102c-.007-.233-.054-.451-.139-.655s-.209-.368-.381-.494-.401-.188-.687-.188c-.215 0-.406.047-.574.14a1.13 1.13 0 0 0-.413.392c-.111.172-.197.379-.258.623a3.49 3.49 0 0 0-.086.81v.215c0 .254.034.49.102.708s.175.403.311.564.3.288.494.381a1.56 1.56 0 0 0 .66.134c.311 0 .589-.062.832-.188s.454-.302.633-.531l.682.66c-.125.183-.288.358-.488.526s-.446.299-.735.403-.619.155-.998.155zm4.632-4.809V255h-1.294v-5.808h1.234l.059 1.106zm1.777-1.143l-.011 1.202c-.079-.014-.165-.025-.258-.032l-.268-.011c-.222 0-.417.032-.585.097s-.309.15-.424.268-.197.254-.258.419-.097.349-.107.553l-.295.021c0-.365.036-.703.107-1.014a2.78 2.78 0 0 1 .322-.822 1.66 1.66 0 0 1 .547-.553c.222-.132.478-.198.768-.198.079 0 .163.007.252.021s.163.031.209.049zm2.796 4.82l1.422-4.783h1.342L46.564 255h-.837l.091-1.025zm-1.09-4.783l1.449 4.804.07 1.004h-.837l-2.029-5.808h1.347zm6.038 0V255h-1.299v-5.808h1.299zm-1.385-1.524c0-.197.064-.36.193-.489s.315-.198.547-.198.41.066.542.198.199.292.199.489-.066.354-.199.483-.313.193-.542.193-.415-.064-.547-.193-.193-.29-.193-.483zm5.362 7.439c-.429 0-.818-.069-1.165-.209a2.57 2.57 0 0 1-.88-.596c-.24-.254-.424-.553-.553-.896a3.14 3.14 0 0 1-.193-1.111v-.215c0-.454.066-.866.199-1.235s.317-.683.553-.944a2.38 2.38 0 0 1 .837-.607c.322-.139.671-.209 1.047-.209.415 0 .778.07 1.09.209s.569.337.773.591.361.549.462.896.156.73.156 1.149v.553h-4.487v-.929h3.21v-.102c-.007-.233-.054-.451-.14-.655s-.209-.368-.381-.494-.401-.188-.687-.188c-.215 0-.406.047-.574.14a1.13 1.13 0 0 0-.413.392c-.111.172-.197.379-.258.623a3.49 3.49 0 0 0-.086.81v.215c0 .254.034.49.102.708s.175.403.311.564.301.288.494.381a1.56 1.56 0 0 0 .66.134c.311 0 .589-.062.832-.188s.454-.302.633-.531l.682.66a2.64 2.64 0 0 1-.488.526c-.2.165-.446.299-.735.403s-.619.155-.998.155zm4.911-1.395l1.342-4.52h.827l-.225 1.353L60.246 255h-.741l.15-1.288zm-.789-4.52l1.047 4.541.086 1.267h-.827l-1.573-5.808h1.267zm4.214 4.488l1.015-4.488h1.261L63.789 255h-.827l.118-1.32zm-1.116-4.488l1.326 4.466.166 1.342h-.741l-1.369-4.46-.225-1.348h.843z"/><path opacity=".55" d="M23.215 272h-1.484l.01-.767h1.475c.508 0 .931-.105 1.27-.317s.592-.514.762-.898.259-.84.259-1.358v-.434c0-.407-.049-.769-.146-1.084s-.241-.588-.43-.806a1.82 1.82 0 0 0-.693-.503c-.27-.114-.581-.171-.933-.171h-1.602v-.771h1.602c.465 0 .89.078 1.274.234a2.74 2.74 0 0 1 .991.669 2.93 2.93 0 0 1 .645 1.055c.15.41.225.872.225 1.386v.425c0 .514-.075.978-.225 1.392s-.366.76-.649 1.05-.619.512-1.016.669-.838.229-1.333.229zm-.981-7.109V272h-.942v-7.109h.942zm8.599 6.206v-2.72c0-.208-.042-.389-.127-.542a.83.83 0 0 0-.371-.361 1.34 1.34 0 0 0-.615-.127c-.228 0-.428.039-.601.117s-.303.181-.4.307-.142.264-.142.411h-.903c0-.189.049-.376.146-.562s.238-.353.42-.503a2.1 2.1 0 0 1 .664-.361c.26-.091.55-.137.869-.137.384 0 .723.065 1.016.195a1.53 1.53 0 0 1 .693.591c.169.261.254.588.254.982v2.461a3.85 3.85 0 0 0 .044.561c.033.199.08.37.142.513V272h-.942c-.046-.104-.081-.243-.107-.415a3.36 3.36 0 0 1-.039-.488zm.156-2.3l.01.635h-.913c-.257 0-.487.021-.689.063s-.371.099-.508.181a.86.86 0 0 0-.312.307c-.072.121-.107.262-.107.425s.037.318.112.454a.81.81 0 0 0 .337.327c.153.079.34.118.562.118.277 0 .521-.059.732-.176s.379-.261.503-.43.195-.333.205-.493l.386.435c-.023.136-.085.288-.186.454a2.17 2.17 0 0 1-.405.478c-.166.15-.364.275-.596.376s-.485.147-.771.147a2.02 2.02 0 0 1-.942-.21c-.267-.14-.475-.327-.625-.562s-.22-.503-.22-.796a1.61 1.61 0 0 1 .166-.747 1.44 1.44 0 0 1 .479-.542c.208-.146.459-.257.752-.332a3.96 3.96 0 0 1 .982-.112h1.05zm3.149-2.08V272h-.908v-5.283h.908zm-.977-1.402c0-.146.044-.27.132-.371s.225-.151.4-.151.304.05.396.151.142.225.142.371a.51.51 0 0 1-.142.362c-.091.097-.223.146-.396.146s-.309-.049-.4-.146-.132-.222-.132-.362zm3.408-.815v7.5h-.908v-7.5h.908zm2.935 6.953l1.47-4.736h.967l-2.119 6.098a3.25 3.25 0 0 1-.195.42 2.02 2.02 0 0 1-.303.435c-.124.137-.273.247-.449.332a1.35 1.35 0 0 1-.62.132c-.072 0-.163-.01-.273-.03l-.234-.048-.005-.733.122.01.122.01a1.46 1.46 0 0 0 .522-.083.79.79 0 0 0 .361-.269c.101-.123.187-.294.259-.512l.376-1.026zm-1.079-4.736l1.372 4.101.234.953-.649.332-1.943-5.386h.986zm8.926 4.638a1.35 1.35 0 0 0 .596-.131 1.23 1.23 0 0 0 .449-.362c.117-.156.184-.333.2-.532h.859a1.61 1.61 0 0 1-.317.874c-.192.267-.444.484-.757.65s-.656.244-1.03.244c-.397 0-.744-.07-1.04-.21s-.537-.332-.732-.576a2.59 2.59 0 0 1-.434-.84c-.094-.319-.142-.656-.142-1.011v-.205c0-.355.047-.69.142-1.006s.242-.601.434-.845.44-.436.732-.576.643-.21 1.04-.21c.413 0 .775.085 1.084.254s.552.394.727.684.277.612.293.976h-.859c-.016-.218-.078-.415-.185-.591a1.17 1.17 0 0 0-.43-.42c-.179-.107-.389-.161-.63-.161-.277 0-.51.056-.698.166s-.334.254-.444.44-.185.386-.234.61a3.37 3.37 0 0 0-.068.679v.205a3.44 3.44 0 0 0 .068.684c.046.224.122.428.23.61a1.27 1.27 0 0 0 .444.439c.189.108.423.161.703.161zm2.881-1.938v-.112c0-.381.055-.734.166-1.06s.27-.613.478-.854.461-.433.757-.567a2.36 2.36 0 0 1 .996-.205c.371 0 .705.069 1.001.205a2.12 2.12 0 0 1 .762.567 2.47 2.47 0 0 1 .483.854c.111.326.166.679.166 1.06v.112c0 .381-.055.734-.166 1.06s-.272.61-.483.854-.461.43-.757.566-.625.201-.996.201-.705-.067-1.001-.201-.55-.325-.762-.566a2.58 2.58 0 0 1-.478-.854c-.111-.326-.166-.679-.166-1.06zm.903-.112v.112c0 .264.031.513.093.747s.155.436.278.615.285.321.474.425.408.151.659.151.464-.05.649-.151.345-.246.469-.425.217-.384.278-.615.098-.483.098-.747v-.112c0-.261-.033-.506-.098-.738s-.156-.441-.283-.62-.28-.325-.469-.429-.404-.157-.654-.157-.465.052-.654.157-.342.247-.469.429-.216.386-.278.62a2.85 2.85 0 0 0-.093.738zm5.938-1.538V272h-.908v-5.283h.859l.049 1.05zm-.186 1.391l-.42-.014a3.61 3.61 0 0 1 .142-1.001 2.37 2.37 0 0 1 .405-.806 1.79 1.79 0 0 1 .669-.527c.267-.127.576-.191.928-.191a2.08 2.08 0 0 1 .684.108 1.37 1.37 0 0 1 .542.327c.153.149.272.342.356.576s.127.517.127.849V272h-.903v-3.477c0-.276-.047-.498-.142-.664a.81.81 0 0 0-.391-.361c-.169-.078-.368-.117-.596-.117-.267 0-.49.047-.669.141s-.322.225-.43.391-.186.357-.234.571a3.2 3.2 0 0 0-.068.674zm3.423-.498l-.606.186a2.66 2.66 0 0 1 .142-.835c.094-.267.23-.505.405-.713s.399-.373.659-.493.558-.186.893-.186c.283 0 .534.038.752.112s.407.191.557.347.269.35.347.591.117.527.117.859V272h-.908v-3.481c0-.297-.047-.526-.142-.689a.74.74 0 0 0-.391-.347c-.166-.068-.364-.102-.596-.102-.198 0-.374.034-.527.102a1.09 1.09 0 0 0-.386.284 1.23 1.23 0 0 0-.239.405c-.052.153-.078.316-.078.488zm5.537-.928v6.299h-.908v-7.314h.83l.078 1.015zm3.56 1.582v.103c0 .384-.046.741-.137 1.069s-.225.609-.4.85-.386.428-.64.561-.545.201-.874.201c-.335 0-.632-.056-.889-.166s-.475-.272-.654-.484a2.46 2.46 0 0 1-.43-.761c-.104-.297-.176-.63-.215-1.001v-.547c.039-.391.112-.741.22-1.05s.249-.573.425-.791a1.74 1.74 0 0 1 .649-.503 2.08 2.08 0 0 1 .879-.176c.332 0 .627.065.884.195s.474.31.649.547a2.5 2.5 0 0 1 .395.855c.091.329.137.695.137 1.098zm-.908.103v-.103a3.18 3.18 0 0 0-.083-.742 1.88 1.88 0 0 0-.259-.615c-.114-.179-.26-.319-.439-.42s-.392-.156-.64-.156c-.228 0-.426.039-.596.117a1.29 1.29 0 0 0-.425.317 1.69 1.69 0 0 0-.288.45 2.57 2.57 0 0 0-.161.517v1.265a2.8 2.8 0 0 0 .273.644c.117.199.273.36.469.484s.441.18.737.18c.244 0 .454-.05.63-.151s.325-.246.439-.425.204-.384.259-.615.083-.483.083-.747zm5.176 1.68v-2.72c0-.208-.042-.389-.127-.542a.83.83 0 0 0-.371-.361 1.34 1.34 0 0 0-.615-.127c-.228 0-.428.039-.601.117s-.303.181-.4.307-.142.264-.142.411h-.903c0-.189.049-.376.147-.562s.238-.353.42-.503a2.1 2.1 0 0 1 .664-.361 2.62 2.62 0 0 1 .869-.137c.384 0 .723.065 1.016.195a1.53 1.53 0 0 1 .693.591c.169.261.254.588.254.982v2.461a3.85 3.85 0 0 0 .044.561c.032.199.08.37.142.513V272h-.942c-.046-.104-.081-.243-.107-.415s-.039-.339-.039-.488zm.156-2.3l.01.635h-.913c-.257 0-.487.021-.689.063s-.371.099-.508.181a.86.86 0 0 0-.312.307c-.072.121-.108.262-.108.425s.037.318.112.454a.81.81 0 0 0 .337.327c.153.079.34.118.561.118.277 0 .521-.059.732-.176s.379-.261.503-.43.195-.333.205-.493l.386.435c-.023.136-.085.288-.186.454a2.17 2.17 0 0 1-.405.478c-.166.15-.365.275-.596.376s-.485.147-.771.147a2.02 2.02 0 0 1-.942-.21c-.267-.14-.475-.327-.625-.562s-.22-.503-.22-.796a1.61 1.61 0 0 1 .166-.747 1.44 1.44 0 0 1 .478-.542c.208-.146.459-.257.752-.332a3.96 3.96 0 0 1 .981-.112h1.05zm3.071-1.25V272h-.903v-5.283h.879l.024.83zm1.65-.859l-.005.839c-.075-.016-.146-.026-.215-.029l-.225-.01c-.208 0-.392.033-.552.098s-.295.156-.405.273-.199.258-.264.42-.103.336-.122.528l-.254.146a4.16 4.16 0 0 1 .093-.898 2.45 2.45 0 0 1 .298-.743c.133-.218.303-.387.508-.507s.456-.186.742-.186c.065 0 .14.008.225.025a.64.64 0 0 1 .176.044zm1.816.029V272h-.908v-5.283h.908zm-.977-1.402c0-.146.044-.27.132-.371s.225-.151.4-.151.304.05.395.151.142.225.142.371a.51.51 0 0 1-.142.362c-.091.097-.223.146-.395.146s-.309-.049-.4-.146-.132-.222-.132-.362zm5.503 5.284a.76.76 0 0 0-.088-.362c-.055-.114-.171-.216-.347-.307s-.433-.176-.781-.244c-.293-.062-.558-.136-.796-.22s-.435-.187-.601-.308-.288-.262-.376-.425-.132-.353-.132-.571c0-.208.046-.405.137-.591a1.59 1.59 0 0 1 .395-.493 1.94 1.94 0 0 1 .62-.337c.241-.081.509-.122.806-.122.423 0 .785.075 1.084.225s.529.35.689.6.239.523.239.826h-.903c0-.147-.044-.289-.132-.425s-.21-.256-.376-.347-.363-.137-.601-.137c-.251 0-.454.039-.61.118s-.265.17-.337.288a.72.72 0 0 0-.103.371.68.68 0 0 0 .049.263.58.58 0 0 0 .186.21c.088.062.212.121.371.176s.363.111.61.166c.433.098.789.215 1.069.352s.488.304.625.503a1.24 1.24 0 0 1 .205.722 1.38 1.38 0 0 1-.147.635 1.41 1.41 0 0 1-.415.498c-.179.137-.394.244-.644.322s-.526.113-.835.113c-.465 0-.859-.083-1.182-.249s-.566-.381-.732-.645-.249-.542-.249-.835h.908c.013.248.085.444.215.591a1.1 1.1 0 0 0 .478.308c.189.058.376.087.561.087.247 0 .454-.032.62-.097s.298-.155.386-.269a.62.62 0 0 0 .132-.39zm1.851-1.182v-.112c0-.381.055-.734.166-1.06s.27-.613.478-.854.461-.433.757-.567a2.36 2.36 0 0 1 .996-.205c.371 0 .705.069 1.001.205s.553.322.762.567a2.47 2.47 0 0 1 .483.854c.111.326.166.679.166 1.06v.112c0 .381-.055.734-.166 1.06s-.272.61-.483.854-.461.43-.757.566-.625.201-.996.201-.705-.067-1.001-.201-.55-.325-.762-.566-.368-.529-.478-.854-.166-.679-.166-1.06zm.903-.112v.112c0 .264.031.513.093.747s.155.436.278.615a1.41 1.41 0 0 0 .474.425c.189.101.409.151.659.151s.464-.05.65-.151.345-.246.469-.425.216-.384.278-.615.098-.483.098-.747v-.112c0-.261-.033-.506-.098-.738a1.9 1.9 0 0 0-.283-.62c-.124-.182-.28-.325-.469-.429s-.404-.157-.654-.157-.466.052-.654.157-.342.247-.469.429-.216.386-.278.62a2.85 2.85 0 0 0-.093.738zm5.942-1.46V272h-.903v-5.283h.855l.049 1.128zm-.215 1.313l-.376-.014c.003-.362.057-.695.161-1.001s.251-.578.439-.806.413-.404.674-.527.555-.191.874-.191c.261 0 .495.036.703.108a1.27 1.27 0 0 1 .532.332c.15.153.264.351.342.595s.117.536.117.884V272h-.908v-3.472c0-.276-.041-.498-.122-.664a.75.75 0 0 0-.356-.366c-.156-.078-.348-.117-.576-.117s-.43.047-.615.141a1.48 1.48 0 0 0-.474.391c-.13.166-.233.357-.308.571s-.107.437-.107.674zm7.08.259v-.112c0-.381.055-.734.166-1.06a2.51 2.51 0 0 1 .479-.854 2.13 2.13 0 0 1 .756-.567c.297-.136.629-.205.997-.205s.704.069 1 .205.554.322.762.567a2.47 2.47 0 0 1 .484.854c.11.326.166.679.166 1.06v.112c0 .381-.056.734-.166 1.06s-.272.61-.484.854-.46.43-.757.566-.625.201-.996.201-.704-.067-1.001-.201-.55-.325-.761-.566-.368-.529-.479-.854-.166-.679-.166-1.06zm.903-.112v.112c0 .264.031.513.093.747s.155.436.278.615.285.321.474.425.409.151.659.151a1.34 1.34 0 0 0 .65-.151 1.36 1.36 0 0 0 .468-.425c.124-.179.217-.384.279-.615a2.78 2.78 0 0 0 .097-.747v-.112a2.72 2.72 0 0 0-.097-.738c-.062-.234-.156-.441-.283-.62s-.28-.325-.469-.429-.404-.157-.654-.157-.466.052-.655.157a1.41 1.41 0 0 0-.469.429c-.123.179-.216.386-.278.62s-.093.477-.093.738zm6.387 2.695h-.903v-5.84c0-.381.068-.701.205-.962a1.38 1.38 0 0 1 .6-.595 1.97 1.97 0 0 1 .928-.206 2.53 2.53 0 0 1 .313.02 2.42 2.42 0 0 1 .312.059l-.049.737c-.068-.016-.146-.028-.234-.034l-.254-.01c-.192 0-.358.039-.498.117s-.241.186-.312.332-.108.327-.108.542V272zm1.123-5.283v.693h-2.861v-.693h2.861zm3.247 2.7v-.112c0-.381.056-.734.166-1.06a2.51 2.51 0 0 1 .479-.854c.208-.245.46-.433.757-.567s.628-.205.996-.205.704.069 1.001.205a2.12 2.12 0 0 1 .761.567 2.47 2.47 0 0 1 .484.854c.11.326.166.679.166 1.06v.112c0 .381-.056.734-.166 1.06s-.272.61-.484.854a2.2 2.2 0 0 1-.756.566 2.37 2.37 0 0 1-.997.201c-.371 0-.704-.067-1.001-.201s-.55-.325-.761-.566-.368-.529-.479-.854-.166-.679-.166-1.06zm.904-.112v.112c0 .264.03.513.092.747s.155.436.279.615.284.321.473.425.409.151.659.151a1.34 1.34 0 0 0 .65-.151c.189-.104.345-.246.469-.425s.216-.384.278-.615a2.78 2.78 0 0 0 .098-.747v-.112a2.72 2.72 0 0 0-.098-.738c-.062-.234-.156-.441-.283-.62s-.28-.325-.469-.429-.404-.157-.654-.157-.466.052-.655.157-.341.247-.468.429a1.96 1.96 0 0 0-.279.62c-.062.232-.092.477-.092.738zm6.567 1.88l1.445-4.468h.923L120.056 272h-.606l.137-.815zm-1.206-4.468l1.489 4.492.103.791h-.606l-1.914-5.283h.928zm6.567 5.381c-.368 0-.701-.062-1.001-.186a2.27 2.27 0 0 1-.766-.532c-.212-.228-.375-.498-.489-.811s-.171-.654-.171-1.025v-.205c0-.43.064-.812.191-1.148s.299-.625.517-.859.466-.412.743-.532a2.12 2.12 0 0 1 .859-.181c.378 0 .703.065.977.195a1.79 1.79 0 0 1 .678.547c.176.231.306.505.391.821s.127.654.127 1.025v.405h-3.945v-.737h3.042v-.068a2.24 2.24 0 0 0-.147-.684 1.22 1.22 0 0 0-.391-.547c-.179-.143-.423-.215-.732-.215-.205 0-.394.044-.566.132s-.321.212-.445.381-.219.376-.288.62a3.16 3.16 0 0 0-.102.845v.205c0 .251.034.487.102.708a1.81 1.81 0 0 0 .308.576c.137.166.301.296.493.391s.417.141.664.141c.319 0 .589-.065.811-.195s.415-.304.581-.522l.547.434c-.114.173-.259.337-.435.493a2.05 2.05 0 0 1-.649.381c-.254.098-.555.147-.904.147zm4.014-4.551V272h-.903v-5.283h.879l.024.83zm1.65-.859l-.005.839a1.29 1.29 0 0 0-.214-.029l-.225-.01c-.208 0-.392.033-.552.098a1.15 1.15 0 0 0-.405.273c-.111.118-.199.258-.264.42a2.04 2.04 0 0 0-.122.528l-.254.146c0-.319.031-.618.093-.898s.164-.528.298-.743a1.45 1.45 0 0 1 .508-.507c.208-.124.455-.186.742-.186a1.16 1.16 0 0 1 .225.025.63.63 0 0 1 .175.044zm3.755 4.409v-2.72a1.1 1.1 0 0 0-.127-.542c-.081-.156-.205-.277-.371-.361a1.34 1.34 0 0 0-.615-.127c-.228 0-.428.039-.601.117s-.302.181-.4.307a.68.68 0 0 0-.142.411h-.903c0-.189.049-.376.146-.562a1.66 1.66 0 0 1 .42-.503c.186-.153.407-.273.664-.361a2.63 2.63 0 0 1 .87-.137 2.48 2.48 0 0 1 1.015.195c.296.131.528.328.694.591s.254.588.254.982v2.461c0 .175.014.363.043.561a2.2 2.2 0 0 0 .142.513V272h-.942c-.046-.104-.082-.243-.108-.415a3.36 3.36 0 0 1-.039-.488zm.156-2.3l.01.635h-.913c-.257 0-.487.021-.688.063a1.56 1.56 0 0 0-.508.181c-.137.081-.241.184-.313.307s-.107.262-.107.425.037.318.112.454.187.246.337.327.34.118.562.118a1.49 1.49 0 0 0 .732-.176c.212-.117.379-.261.503-.43s.195-.333.205-.493l.386.435a1.32 1.32 0 0 1-.186.454c-.101.166-.236.325-.405.478s-.365.275-.596.376-.485.147-.771.147c-.358 0-.672-.07-.943-.21-.266-.14-.475-.327-.625-.562a1.49 1.49 0 0 1-.219-.796c0-.283.055-.532.166-.747s.27-.399.478-.542.459-.257.752-.332.62-.112.982-.112h1.049zm3.15-4.297v7.5h-.908v-7.5h.908zm2.431 0v7.5h-.908v-7.5h.908zm7.007 6.099c0-.131-.029-.251-.088-.362s-.17-.216-.346-.307-.433-.176-.781-.244a6.29 6.29 0 0 1-.796-.22 2.4 2.4 0 0 1-.601-.308c-.163-.12-.288-.262-.376-.425a1.18 1.18 0 0 1-.132-.571 1.33 1.33 0 0 1 .137-.591c.094-.185.226-.35.395-.493s.38-.255.621-.337a2.51 2.51 0 0 1 .805-.122c.423 0 .785.075 1.084.225s.529.35.689.6a1.5 1.5 0 0 1 .239.826h-.903c0-.147-.044-.289-.132-.425s-.21-.256-.376-.347-.363-.137-.601-.137c-.25 0-.454.039-.61.118s-.265.17-.337.288-.103.24-.103.371a.69.69 0 0 0 .049.263.58.58 0 0 0 .186.21 1.5 1.5 0 0 0 .371.176 5.71 5.71 0 0 0 .61.166c.433.098.79.215 1.07.352s.488.304.625.503.205.439.205.722c0 .231-.049.443-.147.635s-.233.358-.415.498-.394.244-.644.322-.526.113-.835.113c-.466 0-.86-.083-1.182-.249s-.566-.381-.732-.645-.249-.542-.249-.835h.908c.013.248.084.444.215.591s.289.246.478.308.376.087.562.087c.247 0 .454-.032.62-.097s.298-.155.385-.269a.62.62 0 0 0 .132-.39zm4.204.756a1.35 1.35 0 0 0 .596-.131 1.23 1.23 0 0 0 .449-.362c.118-.156.184-.333.201-.532h.859a1.61 1.61 0 0 1-.317.874 2.18 2.18 0 0 1-.757.65c-.313.162-.656.244-1.031.244-.397 0-.743-.07-1.04-.21a2.06 2.06 0 0 1-.732-.576 2.6 2.6 0 0 1-.435-.84 3.56 3.56 0 0 1-.141-1.011v-.205a3.51 3.51 0 0 1 .141-1.006c.098-.319.243-.601.435-.845a2.06 2.06 0 0 1 .732-.576c.297-.14.643-.21 1.04-.21.414 0 .775.085 1.084.254a1.86 1.86 0 0 1 .728.684 1.97 1.97 0 0 1 .293.976h-.859c-.017-.218-.079-.415-.186-.591s-.247-.315-.43-.42-.389-.161-.63-.161c-.276 0-.509.056-.698.166a1.23 1.23 0 0 0-.444.44c-.108.182-.186.386-.235.61s-.068.448-.068.679v.205a3.48 3.48 0 0 0 .068.684c.046.224.123.428.23.61a1.28 1.28 0 0 0 .444.439c.189.108.423.161.703.161zm4.024-6.855v7.5h-.903v-7.5h.903zm-.215 4.658l-.376-.014c.003-.362.057-.695.161-1.001s.251-.578.44-.806a1.94 1.94 0 0 1 .673-.527 1.99 1.99 0 0 1 .874-.191 2.15 2.15 0 0 1 .704.108c.208.068.385.179.532.332s.264.351.342.595.117.536.117.884V272h-.908v-3.472c0-.276-.041-.498-.122-.664s-.201-.291-.357-.366a1.28 1.28 0 0 0-.576-.117c-.225 0-.43.047-.615.141a1.48 1.48 0 0 0-.474.391c-.13.166-.233.357-.308.571a2.11 2.11 0 0 0-.107.674zm4.58.259v-.112c0-.381.055-.734.166-1.06a2.51 2.51 0 0 1 .479-.854 2.13 2.13 0 0 1 .756-.567c.297-.136.629-.205.997-.205s.704.069 1.001.205a2.12 2.12 0 0 1 .761.567 2.47 2.47 0 0 1 .484.854c.11.326.166.679.166 1.06v.112c0 .381-.056.734-.166 1.06s-.272.61-.484.854-.46.43-.757.566-.625.201-.996.201-.704-.067-1.001-.201-.55-.325-.761-.566-.368-.529-.479-.854-.166-.679-.166-1.06zm.903-.112v.112c0 .264.031.513.093.747s.155.436.279.615.284.321.473.425.409.151.659.151a1.34 1.34 0 0 0 .65-.151 1.35 1.35 0 0 0 .468-.425c.124-.179.217-.384.279-.615a2.78 2.78 0 0 0 .097-.747v-.112a2.72 2.72 0 0 0-.097-.738c-.062-.234-.156-.441-.283-.62s-.28-.325-.469-.429-.404-.157-.654-.157-.466.052-.655.157a1.4 1.4 0 0 0-.468.429 1.96 1.96 0 0 0-.279.62c-.062.232-.093.477-.093.738zm4.8.112v-.112c0-.381.056-.734.166-1.06a2.51 2.51 0 0 1 .479-.854c.208-.245.46-.433.757-.567s.628-.205.996-.205.704.069 1.001.205a2.12 2.12 0 0 1 .761.567 2.47 2.47 0 0 1 .484.854c.11.326.166.679.166 1.06v.112c0 .381-.056.734-.166 1.06s-.272.61-.484.854a2.2 2.2 0 0 1-.756.566 2.37 2.37 0 0 1-.997.201c-.371 0-.704-.067-1.001-.201s-.55-.325-.761-.566-.368-.529-.479-.854-.166-.679-.166-1.06zm.904-.112v.112c0 .264.03.513.092.747s.155.436.279.615.284.321.473.425.409.151.659.151a1.34 1.34 0 0 0 .65-.151c.189-.104.345-.246.469-.425s.216-.384.278-.615a2.78 2.78 0 0 0 .098-.747v-.112a2.72 2.72 0 0 0-.098-.738c-.062-.234-.156-.441-.283-.62s-.28-.325-.469-.429-.404-.157-.654-.157-.466.052-.655.157-.341.247-.468.429a1.96 1.96 0 0 0-.279.62c-.062.232-.092.477-.092.738zm6.02-4.805v7.5h-.908v-7.5h.908zm7.046 6.597v-2.72a1.1 1.1 0 0 0-.127-.542c-.081-.156-.205-.277-.371-.361a1.34 1.34 0 0 0-.615-.127c-.228 0-.428.039-.601.117s-.303.181-.4.307a.67.67 0 0 0-.142.411h-.903c0-.189.049-.376.146-.562a1.66 1.66 0 0 1 .42-.503c.186-.153.407-.273.664-.361s.55-.137.869-.137c.384 0 .723.065 1.016.195a1.53 1.53 0 0 1 .693.591c.17.261.254.588.254.982v2.461c0 .175.015.363.044.561a2.2 2.2 0 0 0 .142.513V272h-.943c-.045-.104-.081-.243-.107-.415a3.36 3.36 0 0 1-.039-.488zm.156-2.3l.01.635h-.913c-.257 0-.487.021-.689.063s-.371.099-.507.181-.241.184-.313.307-.107.262-.107.425.037.318.112.454.187.246.337.327.34.118.561.118a1.49 1.49 0 0 0 .733-.176c.211-.117.379-.261.503-.43s.195-.333.205-.493l.386.435a1.32 1.32 0 0 1-.186.454c-.101.166-.236.325-.405.478s-.365.275-.596.376-.485.147-.771.147c-.358 0-.673-.07-.943-.21a1.61 1.61 0 0 1-.625-.562 1.49 1.49 0 0 1-.22-.796c0-.283.056-.532.166-.747a1.45 1.45 0 0 1 .479-.542c.208-.146.459-.257.752-.332a3.96 3.96 0 0 1 .981-.112h1.05zm4.38-2.08v.693h-2.856v-.693h2.856zm-1.89-1.284h.904v5.258c0 .179.027.315.083.406s.127.151.215.18.182.044.283.044c.075 0 .153-.006.234-.019l.191-.039.005.737c-.072.023-.167.044-.284.063a2.13 2.13 0 0 1-.415.035c-.221 0-.425-.044-.61-.132s-.334-.235-.444-.44-.162-.488-.162-.839v-5.254zm5.162 1.284v.693h-2.857v-.693h2.857zm-1.89-1.284h.903v5.258c0 .179.028.315.083.406s.127.151.215.18a.87.87 0 0 0 .283.044c.075 0 .153-.006.235-.019l.19-.039.005.737c-.072.023-.166.044-.283.063a2.13 2.13 0 0 1-.415.035 1.41 1.41 0 0 1-.611-.132c-.185-.088-.333-.235-.444-.44s-.161-.488-.161-.839v-5.254zm5.142 6.665a2.59 2.59 0 0 1-1.001-.186c-.297-.127-.552-.304-.767-.532a2.36 2.36 0 0 1-.488-.811c-.114-.312-.171-.654-.171-1.025v-.205c0-.43.063-.812.19-1.148a2.57 2.57 0 0 1 .518-.859 2.21 2.21 0 0 1 .742-.532c.277-.121.563-.181.859-.181.378 0 .703.065.977.195a1.79 1.79 0 0 1 .679.547 2.34 2.34 0 0 1 .39.821c.085.312.127.654.127 1.025v.405h-3.945v-.737h3.042v-.068a2.24 2.24 0 0 0-.147-.684c-.081-.221-.211-.404-.39-.547s-.423-.215-.733-.215c-.205 0-.394.044-.566.132s-.321.212-.444.381-.22.376-.288.62-.103.526-.103.845v.205c0 .251.034.487.103.708s.174.41.307.576.301.296.493.391.417.141.664.141c.319 0 .59-.065.811-.195s.415-.304.581-.522l.547.434c-.114.173-.259.337-.435.493a2.05 2.05 0 0 1-.649.381c-.254.098-.555.147-.903.147zm4.013-4.253V272h-.903v-5.283h.854l.049 1.128zm-.215 1.313l-.376-.014c.004-.362.057-.695.162-1.001s.25-.578.439-.806.413-.404.674-.527.555-.191.874-.191c.26 0 .495.036.703.108a1.27 1.27 0 0 1 .532.332c.15.153.264.351.342.595s.117.536.117.884V272h-.908v-3.472c0-.276-.041-.498-.122-.664s-.2-.291-.357-.366a1.28 1.28 0 0 0-.576-.117c-.224 0-.429.047-.615.141a1.49 1.49 0 0 0-.474.391 1.98 1.98 0 0 0-.307.571c-.072.212-.108.437-.108.674zm8.169 1.817V264.5h.908v7.5h-.83l-.078-1.025zm-3.554-1.558v-.103a3.84 3.84 0 0 1 .146-1.098c.101-.332.243-.617.425-.855s.405-.42.659-.547.544-.195.859-.195a2.02 2.02 0 0 1 .87.176c.25.114.462.281.634.503s.314.482.415.791.171.659.21 1.05v.449c-.035.387-.105.736-.21 1.045s-.239.573-.415.791-.384.386-.634.503-.544.171-.879.171a1.81 1.81 0 0 1-.85-.201 1.99 1.99 0 0 1-.659-.561c-.182-.241-.324-.524-.425-.85s-.146-.685-.146-1.069zm.908-.103v.103a3.37 3.37 0 0 0 .078.742c.055.231.14.435.254.611s.259.314.434.415.386.146.63.146c.3 0 .546-.063.738-.19a1.42 1.42 0 0 0 .468-.503 2.88 2.88 0 0 0 .274-.679v-1.177a2.59 2.59 0 0 0-.171-.517 1.61 1.61 0 0 0-.283-.45 1.23 1.23 0 0 0-.425-.317c-.166-.078-.363-.117-.591-.117-.247 0-.461.052-.64.156s-.32.241-.434.42-.199.381-.254.615-.078.479-.078.742zm8.076 1.783v-2.72a1.1 1.1 0 0 0-.127-.542c-.081-.156-.205-.277-.371-.361a1.34 1.34 0 0 0-.615-.127c-.228 0-.428.039-.601.117s-.303.181-.4.307a.67.67 0 0 0-.142.411h-.903c0-.189.049-.376.146-.562a1.66 1.66 0 0 1 .42-.503c.186-.153.407-.273.664-.361s.55-.137.869-.137c.385 0 .723.065 1.016.195a1.53 1.53 0 0 1 .693.591c.17.261.254.588.254.982v2.461c0 .175.015.363.044.561a2.2 2.2 0 0 0 .142.513V272h-.943c-.045-.104-.081-.243-.107-.415a3.36 3.36 0 0 1-.039-.488zm.156-2.3l.01.635h-.913c-.257 0-.487.021-.689.063s-.371.099-.507.181-.241.184-.313.307-.107.262-.107.425.037.318.112.454.187.246.337.327.34.118.561.118a1.49 1.49 0 0 0 .733-.176c.211-.117.379-.261.503-.43s.195-.333.205-.493l.386.435a1.32 1.32 0 0 1-.186.454c-.101.166-.236.325-.405.478s-.365.275-.596.376-.485.147-.771.147c-.358 0-.673-.07-.943-.21a1.61 1.61 0 0 1-.625-.562 1.49 1.49 0 0 1-.22-.796c0-.283.056-.532.167-.747s.27-.399.478-.542.459-.257.752-.332a3.96 3.96 0 0 1 .981-.112h1.05zm3.072-.952V272h-.904v-5.283h.855l.049 1.128zm-.215 1.313l-.376-.014c.003-.362.057-.695.161-1.001s.25-.578.439-.806.414-.404.674-.527a1.99 1.99 0 0 1 .874-.191 2.14 2.14 0 0 1 .703.108c.209.068.386.179.532.332s.264.351.342.595.117.536.117.884V272h-.908v-3.472c0-.276-.04-.498-.122-.664a.75.75 0 0 0-.356-.366c-.156-.078-.349-.117-.576-.117s-.43.047-.616.141-.34.225-.473.391-.233.357-.308.571-.107.437-.107.674zm6.953 2.197c.215 0 .413-.043.596-.131a1.23 1.23 0 0 0 .449-.362 1 1 0 0 0 .2-.532h.859a1.61 1.61 0 0 1-.317.874c-.192.267-.444.484-.757.65s-.656.244-1.03.244a2.41 2.41 0 0 1-1.04-.21 2.07 2.07 0 0 1-.733-.576 2.58 2.58 0 0 1-.434-.84c-.095-.319-.142-.656-.142-1.011v-.205c0-.355.047-.69.142-1.006s.242-.601.434-.845a2.07 2.07 0 0 1 .733-.576 2.41 2.41 0 0 1 1.04-.21c.413 0 .775.085 1.084.254s.552.394.727.684a1.97 1.97 0 0 1 .293.976h-.859c-.016-.218-.078-.415-.186-.591a1.17 1.17 0 0 0-.429-.42c-.179-.107-.389-.161-.63-.161-.277 0-.51.056-.698.166s-.334.254-.445.44a2.07 2.07 0 0 0-.234.61c-.046.222-.069.448-.069.679v.205c0 .231.023.459.069.684s.122.428.229.61.259.329.445.439.423.161.703.161zm5.312.743c-.368 0-.701-.062-1.001-.186a2.27 2.27 0 0 1-.766-.532c-.212-.228-.375-.498-.489-.811a2.99 2.99 0 0 1-.17-1.025v-.205c0-.43.063-.812.19-1.148s.299-.625.518-.859a2.21 2.21 0 0 1 .742-.532 2.12 2.12 0 0 1 .859-.181c.378 0 .703.065.977.195a1.79 1.79 0 0 1 .678.547c.176.231.306.505.391.821s.127.654.127 1.025v.405h-3.945v-.737h3.042v-.068a2.24 2.24 0 0 0-.147-.684c-.081-.221-.211-.404-.39-.547s-.424-.215-.733-.215c-.205 0-.394.044-.566.132s-.321.212-.445.381-.219.376-.288.62a3.16 3.16 0 0 0-.102.845v.205c0 .251.034.487.102.708a1.81 1.81 0 0 0 .308.576c.137.166.301.296.493.391s.417.141.664.141c.319 0 .589-.065.811-.195s.415-.304.581-.522l.547.434c-.114.173-.259.337-.435.493a2.05 2.05 0 0 1-.649.381c-.254.098-.555.147-.904.147z"/><path d="M23.848 295.281V301h-.723v-4.816l-1.457.531v-.653l2.066-.781h.113zm5.695 2.422v.867c0 .466-.042.86-.125 1.18s-.203.578-.359.773a1.36 1.36 0 0 1-.566.426c-.219.086-.466.129-.742.129-.219 0-.421-.027-.605-.082a1.44 1.44 0 0 1-.5-.262c-.146-.122-.271-.281-.375-.476s-.184-.432-.238-.711-.082-.604-.082-.977v-.867c0-.466.042-.857.125-1.172s.207-.567.363-.758.344-.33.563-.414a2.1 2.1 0 0 1 .742-.125c.221 0 .424.028.609.082a1.38 1.38 0 0 1 .5.254c.146.115.269.269.371.461s.183.423.238.699.082.601.082.973zm-.727.985v-1.106c0-.255-.016-.479-.047-.672s-.072-.362-.129-.5a.99.99 0 0 0-.219-.336.77.77 0 0 0-.301-.187c-.112-.042-.238-.063-.379-.063-.172 0-.324.033-.457.098s-.245.163-.336.301-.156.319-.203.543a4.05 4.05 0 0 0-.07.816v1.106c0 .255.014.48.043.675s.077.365.137.508.133.257.219.348.185.159.297.203.241.062.379.062c.177 0 .332-.033.465-.101s.244-.173.332-.317.159-.332.203-.558.066-.503.066-.82zm5.227-.985v.867c0 .466-.042.86-.125 1.18s-.203.578-.359.773a1.36 1.36 0 0 1-.566.426c-.219.086-.466.129-.742.129-.219 0-.421-.027-.605-.082a1.44 1.44 0 0 1-.5-.262c-.146-.122-.271-.281-.375-.476s-.184-.432-.238-.711-.082-.604-.082-.977v-.867c0-.466.042-.857.125-1.172s.207-.567.363-.758.344-.33.563-.414a2.1 2.1 0 0 1 .742-.125c.221 0 .425.028.609.082a1.38 1.38 0 0 1 .5.254c.146.115.27.269.371.461s.183.423.238.699.082.601.082.973zm-.727.985v-1.106c0-.255-.016-.479-.047-.672s-.072-.362-.129-.5a.99.99 0 0 0-.219-.336.77.77 0 0 0-.301-.187c-.112-.042-.238-.063-.379-.063-.172 0-.324.033-.457.098s-.245.163-.336.301-.156.319-.203.543a4.05 4.05 0 0 0-.07.816v1.106c0 .255.014.48.043.675s.077.365.137.508.133.257.219.348.185.159.297.203.241.062.379.062c.177 0 .332-.033.465-.101s.244-.173.332-.317.159-.332.203-.558.066-.503.066-.82zm1.594-1.981v-.301a1.24 1.24 0 0 1 .141-.59 1.08 1.08 0 0 1 .402-.425c.175-.107.382-.161.621-.161a1.16 1.16 0 0 1 .625.161c.175.106.309.248.402.425s.141.374.141.59v.301c0 .211-.047.405-.141.582s-.224.319-.398.426-.379.16-.621.16-.452-.053-.629-.16a1.09 1.09 0 0 1-.402-.426c-.094-.177-.141-.371-.141-.582zm.543-.301v.301a.88.88 0 0 0 .066.34.63.63 0 0 0 .211.262c.094.065.211.097.352.097s.257-.032.348-.097.159-.155.203-.262a.88.88 0 0 0 .066-.34v-.301a.85.85 0 0 0-.07-.344.57.57 0 0 0-.207-.261c-.091-.068-.207-.102-.348-.102s-.254.034-.348.102-.16.152-.207.261-.066.222-.066.344zm2.227 3.504v-.305a1.23 1.23 0 0 1 .141-.585c.094-.178.228-.319.402-.426s.381-.16.621-.16a1.16 1.16 0 0 1 .625.16c.174.107.308.248.402.426a1.23 1.23 0 0 1 .141.585v.305a1.23 1.23 0 0 1-.141.586c-.091.177-.224.319-.398.426s-.379.16-.621.16-.451-.053-.625-.16a1.12 1.12 0 0 1-.406-.426 1.23 1.23 0 0 1-.141-.586zm.543-.305v.305c0 .12.022.235.066.344a.63.63 0 0 0 .211.262c.094.065.211.097.352.097s.257-.032.348-.097a.6.6 0 0 0 .207-.262.89.89 0 0 0 .067-.344v-.305a.84.84 0 0 0-.07-.343c-.044-.107-.113-.193-.207-.258s-.208-.102-.352-.102c-.138 0-.254.034-.348.102a.61.61 0 0 0-.207.258c-.044.106-.066.221-.066.343zm.801-3.484l-2.777 4.445-.406-.257 2.777-4.446.406.258z"/></g><path d="M47 375.745l47.996 18.816 39.548-63.381" stroke="#63d999" class="B"/><path stroke="#dfe4e7" stroke-dasharray="2.59 2.59" d="M166.525 299v116.112"/><g class="B"><path d="M133.776 331.51l33.021 37.962" stroke="#ff8a8a"/><path d="M166.797 369.472l37.629-32.68 24.573-4.952" stroke="#63d999"/></g><circle cx="166.5" cy="368.5" r="2.852" fill="#fff" stroke="#eb5757" stroke-width="1.296"/><path d="M47 375.744l47.996 18.817" stroke="#ff8a8a" class="B"/><path d="M25.059 329.461c0 .346-.081.641-.242.883a1.52 1.52 0 0 1-.648.547c-.271.125-.577.187-.918.187s-.648-.062-.922-.187a1.52 1.52 0 0 1-.648-.547c-.159-.242-.238-.537-.238-.883a1.47 1.47 0 0 1 .129-.621 1.5 1.5 0 0 1 .371-.496 1.69 1.69 0 0 1 .57-.324 2.16 2.16 0 0 1 .73-.118c.349 0 .66.068.934.203s.488.317.645.551.238.503.238.805zm-.727-.016c0-.211-.046-.397-.137-.558s-.219-.292-.383-.383-.354-.137-.57-.137a1.15 1.15 0 0 0-.574.137.95.95 0 0 0-.371.383c-.088.164-.133.347-.133.558a1.15 1.15 0 0 0 .129.563.9.9 0 0 0 .375.355 1.3 1.3 0 0 0 .582.121c.224 0 .417-.04.578-.121s.285-.202.371-.355.133-.344.133-.563zm.594-2.652c0 .276-.073.525-.219.746s-.345.396-.598.523-.539.192-.859.192c-.326 0-.616-.064-.871-.192s-.451-.302-.594-.523-.215-.47-.215-.746c0-.331.072-.612.215-.844a1.42 1.42 0 0 1 .598-.531 1.96 1.96 0 0 1 .863-.184 1.97 1.97 0 0 1 .867.184 1.39 1.39 0 0 1 .594.531c.143.232.219.513.219.844zm-.723.012a1.02 1.02 0 0 0-.121-.504.89.89 0 0 0-.336-.344.98.98 0 0 0-.5-.129c-.19 0-.357.04-.5.121a.84.84 0 0 0-.332.336c-.078.146-.117.319-.117.52 0 .195.039.366.117.511s.193.26.336.34.31.121.5.121.355-.04.496-.121a.88.88 0 0 0 .336-.34c.081-.146.121-.316.121-.511zm5.34.898v.867c0 .466-.042.86-.125 1.18s-.203.578-.359.773a1.36 1.36 0 0 1-.566.426c-.219.086-.466.129-.742.129-.219 0-.421-.027-.605-.082a1.44 1.44 0 0 1-.5-.262c-.146-.122-.271-.281-.375-.476s-.184-.432-.238-.711-.082-.604-.082-.977v-.867c0-.466.042-.857.125-1.172s.207-.567.363-.758a1.34 1.34 0 0 1 .563-.414 2.1 2.1 0 0 1 .742-.125c.221 0 .424.028.609.082a1.38 1.38 0 0 1 .5.254c.146.115.269.269.371.461s.183.423.238.699.082.601.082.973zm-.727.985v-1.106a4.28 4.28 0 0 0-.047-.672 2.28 2.28 0 0 0-.129-.5.99.99 0 0 0-.219-.336.77.77 0 0 0-.301-.187c-.112-.042-.238-.063-.379-.063-.172 0-.324.033-.457.098s-.245.163-.336.301-.156.319-.203.543a4.05 4.05 0 0 0-.07.816v1.106c0 .255.014.48.043.675s.077.365.137.508a1.14 1.14 0 0 0 .219.348c.086.091.185.159.297.203a1.04 1.04 0 0 0 .379.062c.177 0 .332-.033.465-.101a.83.83 0 0 0 .332-.317c.088-.144.159-.332.203-.558s.066-.503.066-.82zm1.594-1.981v-.301a1.24 1.24 0 0 1 .141-.59 1.08 1.08 0 0 1 .402-.425c.175-.107.381-.161.621-.161a1.16 1.16 0 0 1 .625.161c.175.106.309.248.402.425a1.25 1.25 0 0 1 .141.59v.301a1.22 1.22 0 0 1-.141.582c-.094.177-.224.319-.398.426s-.379.16-.621.16-.452-.053-.629-.16a1.09 1.09 0 0 1-.402-.426 1.22 1.22 0 0 1-.141-.582zm.543-.301v.301a.88.88 0 0 0 .066.34.63.63 0 0 0 .211.262c.094.065.211.097.352.097s.256-.032.348-.097.159-.155.203-.262a.88.88 0 0 0 .066-.34v-.301a.85.85 0 0 0-.07-.344.57.57 0 0 0-.207-.261c-.091-.068-.207-.102-.348-.102s-.254.034-.348.102-.16.152-.207.261a.85.85 0 0 0-.066.344zm2.227 3.504v-.305a1.23 1.23 0 0 1 .141-.585 1.09 1.09 0 0 1 .402-.426c.174-.107.381-.16.621-.16a1.16 1.16 0 0 1 .625.16 1.09 1.09 0 0 1 .402.426 1.23 1.23 0 0 1 .141.585v.305a1.23 1.23 0 0 1-.141.586c-.091.177-.224.319-.398.426s-.379.16-.621.16-.451-.053-.625-.16a1.12 1.12 0 0 1-.406-.426 1.23 1.23 0 0 1-.141-.586zm.543-.305v.305a.91.91 0 0 0 .066.344.63.63 0 0 0 .211.262c.094.065.211.097.352.097s.257-.032.348-.097a.6.6 0 0 0 .207-.262.89.89 0 0 0 .067-.344v-.305a.84.84 0 0 0-.07-.343.57.57 0 0 0-.207-.258.6.6 0 0 0-.352-.102c-.138 0-.254.034-.348.102a.61.61 0 0 0-.207.258.89.89 0 0 0-.066.343zm.801-3.484l-2.777 4.445-.406-.257 2.777-4.446.406.258zm-10.278 28.184h.063v.613h-.062c-.383 0-.703.062-.961.187s-.462.288-.613.497a2.07 2.07 0 0 0-.328.695 3.19 3.19 0 0 0-.098.785v.836a2.29 2.29 0 0 0 .09.672 1.51 1.51 0 0 0 .246.488 1.09 1.09 0 0 0 .352.301c.133.068.271.101.414.101a1.02 1.02 0 0 0 .445-.093c.13-.062.24-.155.328-.27s.16-.255.207-.414a1.84 1.84 0 0 0 .07-.523 1.89 1.89 0 0 0-.062-.489 1.3 1.3 0 0 0-.191-.421.92.92 0 0 0-.324-.293c-.13-.07-.28-.11-.457-.11a1.12 1.12 0 0 0-.562.149 1.28 1.28 0 0 0-.426.382 1.03 1.03 0 0 0-.187.512l-.383-.004c.036-.291.104-.54.203-.746s.227-.377.375-.508a1.42 1.42 0 0 1 .504-.289 1.88 1.88 0 0 1 .594-.093c.284 0 .529.053.734.16a1.45 1.45 0 0 1 .508.429 1.8 1.8 0 0 1 .293.602 2.41 2.41 0 0 1 .098.684 2.44 2.44 0 0 1-.113.753 1.78 1.78 0 0 1-.34.618c-.148.177-.332.315-.551.414s-.473.148-.762.148c-.307 0-.576-.062-.805-.187s-.419-.297-.57-.508-.264-.445-.34-.703-.113-.52-.113-.785v-.34a5.74 5.74 0 0 1 .121-1.18c.081-.385.22-.734.418-1.047s.478-.561.832-.746.806-.277 1.355-.277zm5.297 2.398v.867c0 .466-.042.86-.125 1.18s-.203.578-.359.773a1.36 1.36 0 0 1-.566.426c-.219.086-.466.129-.742.129-.219 0-.421-.027-.605-.082a1.44 1.44 0 0 1-.5-.262c-.146-.122-.271-.281-.375-.476s-.184-.432-.238-.711-.082-.604-.082-.977v-.867c0-.466.042-.857.125-1.172s.207-.567.363-.758a1.34 1.34 0 0 1 .563-.414 2.1 2.1 0 0 1 .742-.125c.221 0 .424.028.609.082a1.38 1.38 0 0 1 .5.254c.146.115.269.269.371.461s.183.423.238.699.082.601.082.973zm-.727.985v-1.106a4.28 4.28 0 0 0-.047-.672 2.28 2.28 0 0 0-.129-.5.99.99 0 0 0-.219-.336.77.77 0 0 0-.301-.187c-.112-.042-.238-.063-.379-.063-.172 0-.324.033-.457.098s-.245.163-.336.301-.156.319-.203.543a4.05 4.05 0 0 0-.07.816v1.106c0 .255.014.48.043.675s.077.365.137.508a1.14 1.14 0 0 0 .219.348c.086.091.185.159.297.203a1.04 1.04 0 0 0 .379.062c.177 0 .332-.033.465-.101a.83.83 0 0 0 .332-.317c.088-.144.159-.332.203-.558s.066-.503.066-.82zm1.594-1.981v-.301a1.24 1.24 0 0 1 .141-.59 1.08 1.08 0 0 1 .402-.425c.175-.107.381-.161.621-.161a1.16 1.16 0 0 1 .625.161c.175.106.309.248.402.425a1.25 1.25 0 0 1 .141.59v.301a1.22 1.22 0 0 1-.141.582c-.094.177-.224.319-.398.426s-.379.16-.621.16-.452-.053-.629-.16a1.09 1.09 0 0 1-.402-.426 1.22 1.22 0 0 1-.141-.582zm.543-.301v.301a.88.88 0 0 0 .066.34.63.63 0 0 0 .211.262c.094.065.211.097.352.097s.256-.032.348-.097.159-.155.203-.262a.88.88 0 0 0 .066-.34v-.301a.85.85 0 0 0-.07-.344.57.57 0 0 0-.207-.261c-.091-.068-.207-.102-.348-.102s-.254.034-.348.102-.16.152-.207.261a.85.85 0 0 0-.066.344zm2.227 3.504v-.305a1.23 1.23 0 0 1 .141-.585 1.09 1.09 0 0 1 .402-.426c.174-.107.381-.16.621-.16a1.16 1.16 0 0 1 .625.16 1.09 1.09 0 0 1 .402.426 1.23 1.23 0 0 1 .141.585v.305a1.23 1.23 0 0 1-.141.586c-.091.177-.224.319-.398.426s-.379.16-.621.16-.451-.053-.625-.16a1.12 1.12 0 0 1-.406-.426 1.23 1.23 0 0 1-.141-.586zm.543-.305v.305a.91.91 0 0 0 .066.344.63.63 0 0 0 .211.262c.094.065.211.097.352.097s.257-.032.348-.097a.6.6 0 0 0 .207-.262.89.89 0 0 0 .067-.344v-.305a.84.84 0 0 0-.07-.343.57.57 0 0 0-.207-.258.6.6 0 0 0-.352-.102c-.138 0-.254.034-.348.102a.61.61 0 0 0-.207.258.89.89 0 0 0-.066.343zm.801-3.484l-2.777 4.445-.406-.257 2.777-4.446.406.258zm-9.208 32.965v.594h-4.109v-.426l2.547-3.942h.59l-.633 1.141-1.684 2.633h3.289zm-.793-3.774V390H23.8v-5.688h.723zm5.02 2.391v.867c0 .466-.042.86-.125 1.18s-.203.578-.359.773a1.36 1.36 0 0 1-.566.426c-.219.086-.466.129-.742.129-.219 0-.421-.027-.605-.082a1.44 1.44 0 0 1-.5-.262c-.146-.122-.271-.281-.375-.476s-.184-.432-.238-.711-.082-.604-.082-.977v-.867c0-.466.042-.857.125-1.172s.207-.567.363-.758a1.34 1.34 0 0 1 .563-.414 2.1 2.1 0 0 1 .742-.125c.221 0 .424.028.609.082a1.38 1.38 0 0 1 .5.254c.146.115.269.269.371.461s.183.423.238.699.082.601.082.973zm-.727.985v-1.106a4.28 4.28 0 0 0-.047-.672 2.28 2.28 0 0 0-.129-.5.99.99 0 0 0-.219-.336.77.77 0 0 0-.301-.187c-.112-.042-.238-.063-.379-.063-.172 0-.324.033-.457.098s-.245.163-.336.301-.156.319-.203.543a4.05 4.05 0 0 0-.07.816v1.106c0 .255.014.48.043.675s.077.365.137.508a1.14 1.14 0 0 0 .219.348c.086.091.185.159.297.203a1.04 1.04 0 0 0 .379.062c.177 0 .332-.033.465-.101a.83.83 0 0 0 .332-.317c.088-.144.159-.332.203-.558s.066-.503.066-.82zm1.594-1.981v-.301a1.24 1.24 0 0 1 .141-.59 1.08 1.08 0 0 1 .402-.425c.175-.107.381-.161.621-.161a1.16 1.16 0 0 1 .625.161c.175.106.309.248.402.425a1.25 1.25 0 0 1 .141.59v.301a1.22 1.22 0 0 1-.141.582c-.094.177-.224.319-.398.426s-.379.16-.621.16-.452-.053-.629-.16a1.09 1.09 0 0 1-.402-.426 1.22 1.22 0 0 1-.141-.582zm.543-.301v.301a.88.88 0 0 0 .066.34.63.63 0 0 0 .211.262c.094.065.211.097.352.097s.256-.032.348-.097.159-.155.203-.262a.88.88 0 0 0 .066-.34v-.301a.85.85 0 0 0-.07-.344.57.57 0 0 0-.207-.261c-.091-.068-.207-.102-.348-.102s-.254.034-.348.102-.16.152-.207.261a.85.85 0 0 0-.066.344zm2.227 3.504v-.305a1.23 1.23 0 0 1 .141-.585 1.09 1.09 0 0 1 .402-.426c.174-.107.381-.16.621-.16a1.16 1.16 0 0 1 .625.16 1.09 1.09 0 0 1 .402.426 1.23 1.23 0 0 1 .141.585v.305a1.23 1.23 0 0 1-.141.586c-.091.177-.224.319-.398.426s-.379.16-.621.16-.451-.053-.625-.16a1.12 1.12 0 0 1-.406-.426 1.23 1.23 0 0 1-.141-.586zm.543-.305v.305a.91.91 0 0 0 .066.344.63.63 0 0 0 .211.262c.094.065.211.097.352.097s.257-.032.348-.097a.6.6 0 0 0 .207-.262.89.89 0 0 0 .067-.344v-.305a.84.84 0 0 0-.07-.343.57.57 0 0 0-.207-.258.6.6 0 0 0-.352-.102c-.138 0-.254.034-.348.102a.61.61 0 0 0-.207.258.89.89 0 0 0-.066.343zm.801-3.484l-2.777 4.445-.406-.257 2.777-4.446.406.258zm-9.325 33.285V419h-3.723v-.52l1.863-2.074.531-.648a2.03 2.03 0 0 0 .266-.481 1.27 1.27 0 0 0 .078-.437 1.09 1.09 0 0 0-.117-.508c-.076-.154-.187-.276-.336-.367s-.328-.137-.539-.137c-.253 0-.464.05-.633.149a.91.91 0 0 0-.375.406c-.083.174-.125.375-.125.601h-.723a1.85 1.85 0 0 1 .211-.879c.141-.265.349-.476.625-.632s.616-.239 1.02-.239c.359 0 .667.064.922.192a1.37 1.37 0 0 1 .586.531c.135.229.207.492.207.797a1.6 1.6 0 0 1-.086.508c-.055.169-.132.338-.231.508a4.29 4.29 0 0 1-.34.5l-.41.484-1.523 1.652h2.852zm4.344-2.703v.867c0 .466-.042.86-.125 1.18s-.203.578-.359.773a1.36 1.36 0 0 1-.566.426c-.219.086-.466.129-.742.129-.219 0-.421-.027-.605-.082a1.44 1.44 0 0 1-.5-.262c-.146-.122-.271-.281-.375-.476s-.184-.432-.238-.711-.082-.604-.082-.977v-.867c0-.466.042-.857.125-1.172s.207-.567.363-.758a1.34 1.34 0 0 1 .563-.414 2.1 2.1 0 0 1 .742-.125c.221 0 .424.028.609.082a1.38 1.38 0 0 1 .5.254c.146.115.269.269.371.461s.183.423.238.699.082.601.082.973zm-.727.985v-1.106a4.28 4.28 0 0 0-.047-.672 2.28 2.28 0 0 0-.129-.5.99.99 0 0 0-.219-.336.77.77 0 0 0-.301-.187c-.112-.042-.238-.063-.379-.063-.172 0-.324.033-.457.098s-.245.163-.336.301-.156.319-.203.543a4.05 4.05 0 0 0-.07.816v1.106c0 .255.014.48.043.675s.077.365.137.508a1.14 1.14 0 0 0 .219.348c.086.091.185.159.297.203a1.04 1.04 0 0 0 .379.062c.177 0 .332-.033.465-.101a.83.83 0 0 0 .332-.317c.088-.144.159-.332.203-.558s.066-.503.066-.82zm1.594-1.981v-.301a1.24 1.24 0 0 1 .141-.59 1.08 1.08 0 0 1 .402-.425c.175-.107.381-.161.621-.161a1.16 1.16 0 0 1 .625.161c.175.106.309.248.402.425a1.25 1.25 0 0 1 .141.59v.301a1.22 1.22 0 0 1-.141.582c-.094.177-.224.319-.398.426s-.379.16-.621.16-.452-.053-.629-.16a1.09 1.09 0 0 1-.402-.426 1.22 1.22 0 0 1-.141-.582zm.543-.301v.301a.88.88 0 0 0 .066.34.63.63 0 0 0 .211.262c.094.065.211.097.352.097s.256-.032.348-.097.159-.155.203-.262a.88.88 0 0 0 .066-.34v-.301a.85.85 0 0 0-.07-.344.57.57 0 0 0-.207-.261c-.091-.068-.207-.102-.348-.102s-.254.034-.348.102-.16.152-.207.261a.85.85 0 0 0-.066.344zm2.227 3.504v-.305a1.23 1.23 0 0 1 .141-.585 1.09 1.09 0 0 1 .402-.426c.174-.107.381-.16.621-.16a1.16 1.16 0 0 1 .625.16 1.09 1.09 0 0 1 .402.426 1.23 1.23 0 0 1 .141.585v.305a1.23 1.23 0 0 1-.141.586c-.091.177-.224.319-.398.426s-.379.16-.621.16-.451-.053-.625-.16a1.12 1.12 0 0 1-.406-.426 1.23 1.23 0 0 1-.141-.586zm.543-.305v.305a.91.91 0 0 0 .066.344.63.63 0 0 0 .211.262c.094.065.211.097.352.097s.257-.032.348-.097a.6.6 0 0 0 .207-.262.89.89 0 0 0 .067-.344v-.305a.84.84 0 0 0-.07-.343.57.57 0 0 0-.207-.258.6.6 0 0 0-.352-.102c-.138 0-.254.034-.348.102a.61.61 0 0 0-.207.258.89.89 0 0 0-.066.343zm.801-3.484l-2.777 4.445-.406-.257 2.777-4.446.406.258z" fill="#000"/><path d="M20 120.58a4.58 4.58 0 0 1 4.58-4.58h90.608a4.58 4.58 0 0 1 4.58 4.58v41.84a4.58 4.58 0 0 1-4.58 4.58H24.58a4.58 4.58 0 0 1-4.58-4.58v-41.84z" fill="#fff"/><use xlink:href="#B" stroke="#919191" class="C E"/><path d="M35.452 128.891V136h-.928v-7.109h.928zm2.285 0v.771h-5.493v-.771h5.493zm.19 4.526v-.112c0-.381.055-.734.166-1.06s.27-.613.478-.854.461-.433.757-.567a2.36 2.36 0 0 1 .996-.205c.371 0 .705.069 1.001.205a2.12 2.12 0 0 1 .762.567 2.47 2.47 0 0 1 .483.854c.111.326.166.679.166 1.06v.112c0 .381-.055.734-.166 1.06s-.272.61-.483.854-.461.43-.757.566-.625.201-.996.201-.705-.067-1.001-.201-.55-.325-.762-.566a2.58 2.58 0 0 1-.478-.854c-.111-.326-.166-.679-.166-1.06zm.903-.112v.112c0 .264.031.513.093.747a1.97 1.97 0 0 0 .278.615 1.41 1.41 0 0 0 .474.425c.189.101.408.151.659.151s.464-.05.649-.151.345-.246.469-.425.217-.384.278-.615.098-.483.098-.747v-.112c0-.261-.033-.506-.098-.738a1.9 1.9 0 0 0-.283-.62c-.124-.182-.28-.325-.469-.429s-.404-.157-.654-.157-.466.052-.654.157-.342.247-.469.429-.216.386-.278.62a2.85 2.85 0 0 0-.093.738zm7.251-2.588v.693h-2.856v-.693h2.856zm-1.89-1.284h.903v5.258c0 .179.028.315.083.406s.127.151.215.18a.87.87 0 0 0 .283.044c.075 0 .153-.006.234-.019l.191-.039.005.737a2.01 2.01 0 0 1-.283.063 2.13 2.13 0 0 1-.415.035c-.221 0-.425-.044-.61-.132s-.334-.235-.444-.44-.161-.488-.161-.839v-5.254zm6.064 5.664v-2.72c0-.208-.042-.389-.127-.542a.83.83 0 0 0-.371-.361 1.34 1.34 0 0 0-.615-.127c-.228 0-.428.039-.601.117s-.303.181-.4.307-.142.264-.142.411h-.903c0-.189.049-.376.146-.562s.238-.353.42-.503a2.1 2.1 0 0 1 .664-.361c.26-.091.55-.137.869-.137.384 0 .723.065 1.016.195a1.53 1.53 0 0 1 .693.591c.169.261.254.588.254.982v2.461a3.85 3.85 0 0 0 .044.561c.033.199.08.37.142.513V136h-.942c-.046-.104-.081-.243-.107-.415a3.36 3.36 0 0 1-.039-.488zm.156-2.3l.01.635h-.913c-.257 0-.487.021-.688.063s-.371.099-.508.181a.86.86 0 0 0-.312.307c-.072.121-.107.262-.107.425s.037.318.112.454a.81.81 0 0 0 .337.327c.153.079.34.118.562.118.277 0 .521-.059.732-.176s.379-.261.503-.43.195-.333.205-.493l.386.435c-.023.136-.085.288-.186.454a2.17 2.17 0 0 1-.405.478c-.166.15-.364.275-.596.376s-.485.147-.771.147a2.02 2.02 0 0 1-.942-.21c-.267-.14-.475-.327-.625-.562s-.22-.503-.22-.796a1.61 1.61 0 0 1 .166-.747 1.44 1.44 0 0 1 .478-.542c.208-.146.459-.257.752-.332s.62-.112.982-.112h1.05zm3.149-4.297v7.5h-.908v-7.5h.908zm7.856 5.703a1.15 1.15 0 0 0-.078-.439c-.049-.131-.137-.248-.264-.352s-.296-.203-.517-.298-.495-.19-.83-.288a7.6 7.6 0 0 1-.952-.347c-.283-.13-.526-.278-.727-.444s-.356-.356-.464-.571-.161-.461-.161-.737a1.73 1.73 0 0 1 .171-.767 1.79 1.79 0 0 1 .488-.61 2.37 2.37 0 0 1 .767-.411c.296-.097.627-.146.991-.146.534 0 .986.103 1.357.308a2.15 2.15 0 0 1 .855.795 2 2 0 0 1 .293 1.045h-.937c0-.267-.057-.503-.171-.708s-.287-.371-.518-.488-.524-.181-.879-.181c-.335 0-.612.051-.83.152s-.381.237-.488.41a1.12 1.12 0 0 0-.156.591c0 .15.031.286.093.41s.164.233.298.337.309.2.518.288.464.172.757.254c.404.114.752.241 1.045.381s.534.298.723.473.334.37.425.591.142.466.142.742a1.73 1.73 0 0 1-.176.786c-.117.235-.285.435-.503.601s-.48.295-.786.386-.641.132-1.016.132c-.329 0-.653-.046-.972-.137a2.9 2.9 0 0 1-.864-.41c-.257-.183-.464-.407-.62-.674a1.87 1.87 0 0 1-.229-.938h.938a1.31 1.31 0 0 0 .142.63 1.25 1.25 0 0 0 .386.43 1.79 1.79 0 0 0 .562.254 2.75 2.75 0 0 0 .659.078c.329 0 .607-.046.835-.137s.4-.221.518-.39.181-.37.181-.601zm4.224-3.486v.693h-2.857v-.693h2.857zm-1.89-1.284h.903v5.258c0 .179.028.315.083.406s.127.151.215.18a.87.87 0 0 0 .283.044c.075 0 .153-.006.234-.019l.19-.039.005.737a2.01 2.01 0 0 1-.283.063 2.13 2.13 0 0 1-.415.035c-.221 0-.425-.044-.61-.132s-.334-.235-.444-.44-.161-.488-.161-.839v-5.254zm6.182 5.346v-4.062h.908V136h-.864l-.044-1.221zm.171-1.113l.376-.01c0 .352-.037.677-.112.977s-.189.553-.352.771-.376.389-.64.513-.584.181-.962.181c-.257 0-.493-.038-.708-.113s-.394-.19-.547-.346-.272-.36-.356-.611-.122-.551-.122-.903v-3.408h.903v3.418c0 .237.026.434.078.591s.128.275.22.366a.8.8 0 0 0 .313.185c.117.036.238.054.361.054.384 0 .689-.073.913-.22a1.25 1.25 0 0 0 .483-.6 2.27 2.27 0 0 0 .151-.845zm5.444 1.309V128.5h.908v7.5h-.83l-.078-1.025zm-3.555-1.558v-.103a3.85 3.85 0 0 1 .147-1.098c.101-.332.243-.617.425-.855a1.93 1.93 0 0 1 .659-.547c.257-.13.544-.195.859-.195.332 0 .622.059.869.176s.462.281.635.503.314.482.415.791.171.659.21 1.05v.449a4.6 4.6 0 0 1-.21 1.045c-.101.309-.239.573-.415.791s-.384.386-.635.503-.544.171-.879.171a1.81 1.81 0 0 1-.85-.201c-.254-.133-.474-.32-.659-.561s-.324-.524-.425-.85-.147-.685-.147-1.069zm.908-.103v.103a3.37 3.37 0 0 0 .078.742c.055.231.14.435.254.611a1.27 1.27 0 0 0 .434.415c.176.097.386.146.63.146.299 0 .545-.063.737-.19s.352-.295.469-.503.208-.435.273-.679v-1.177c-.039-.179-.096-.351-.171-.517a1.6 1.6 0 0 0-.283-.45c-.114-.133-.255-.239-.425-.317s-.363-.117-.591-.117c-.247 0-.461.052-.64.156s-.321.241-.434.42-.199.381-.254.615-.078.479-.078.742zm7.153 2.784c-.368 0-.702-.062-1.001-.186s-.552-.304-.767-.532-.374-.498-.488-.811-.171-.654-.171-1.025v-.205a3.23 3.23 0 0 1 .19-1.148c.127-.338.299-.625.518-.859s.465-.412.742-.532.563-.181.859-.181c.378 0 .703.065.977.195a1.79 1.79 0 0 1 .679.547 2.34 2.34 0 0 1 .391.821 3.91 3.91 0 0 1 .127 1.025v.405h-3.945v-.737h3.042v-.068a2.25 2.25 0 0 0-.147-.684 1.23 1.23 0 0 0-.391-.547c-.179-.143-.423-.215-.732-.215a1.23 1.23 0 0 0-.566.132c-.172.085-.321.212-.444.381s-.22.376-.288.62-.103.526-.103.845v.205c0 .251.034.487.103.708s.174.41.308.576.301.296.493.391.417.141.664.141c.319 0 .589-.065.81-.195s.415-.304.581-.522l.547.434c-.114.173-.259.337-.434.493s-.392.284-.649.381-.555.147-.903.147zm4.014-4.253V136h-.903v-5.283h.855l.049 1.128zm-.215 1.313l-.376-.014c.003-.362.057-.695.161-1.001s.251-.578.439-.806.413-.404.674-.527.555-.191.874-.191c.26 0 .495.036.703.108a1.27 1.27 0 0 1 .532.332c.15.153.264.351.342.595s.117.536.117.884V136h-.908v-3.472c0-.276-.041-.498-.122-.664a.75.75 0 0 0-.356-.366c-.156-.078-.348-.117-.576-.117s-.43.047-.615.141a1.48 1.48 0 0 0-.474.391c-.13.166-.233.357-.308.571s-.107.437-.107.674zm7.051-2.441v.693H88.05v-.693h2.856zm-1.89-1.284h.903v5.258c0 .179.028.315.083.406s.127.151.215.18a.87.87 0 0 0 .283.044c.075 0 .153-.006.234-.019l.19-.039.005.737c-.072.023-.166.044-.283.063a2.13 2.13 0 0 1-.415.035c-.221 0-.425-.044-.61-.132s-.334-.235-.444-.44-.161-.488-.161-.839v-5.254zm6.025 5.166a.76.76 0 0 0-.088-.362c-.055-.114-.171-.216-.347-.307s-.433-.176-.781-.244c-.293-.062-.558-.136-.796-.22s-.435-.187-.601-.308-.288-.262-.376-.425a1.18 1.18 0 0 1-.132-.571c0-.208.046-.405.137-.591s.226-.35.395-.493a1.94 1.94 0 0 1 .62-.337c.241-.081.509-.122.806-.122.423 0 .784.075 1.084.225s.529.35.688.6.239.523.239.826h-.903c0-.147-.044-.289-.132-.425s-.21-.256-.376-.347-.363-.137-.601-.137c-.251 0-.454.039-.61.118-.153.074-.265.17-.337.288s-.102.24-.102.371a.68.68 0 0 0 .049.263.58.58 0 0 0 .186.21c.088.062.212.121.371.176s.363.111.61.166c.433.098.789.215 1.069.352s.488.304.625.503.205.439.205.722a1.38 1.38 0 0 1-.147.635c-.094.192-.233.358-.415.498s-.394.244-.644.322-.526.113-.835.113c-.466 0-.859-.083-1.182-.249s-.567-.381-.733-.645-.249-.542-.249-.835h.908c.013.248.085.444.215.591a1.1 1.1 0 0 0 .478.308c.189.058.376.087.562.087.247 0 .454-.032.62-.097s.298-.155.386-.269a.62.62 0 0 0 .132-.39zm2.051.922a.55.55 0 0 1 .142-.385c.098-.108.238-.161.42-.161s.321.053.415.161a.54.54 0 0 1 .147.385c0 .15-.049.277-.147.381s-.233.157-.415.157-.322-.052-.42-.157-.142-.231-.142-.381zm.005-4.311c0-.153.047-.282.142-.386s.238-.161.42-.161.321.054.415.161.146.233.146.386-.049.277-.146.381-.233.156-.415.156-.322-.052-.42-.156-.142-.231-.142-.381z" class="D"/><path d="M34.303 148.096h.844c.328 0 .6-.057.814-.17s.381-.27.486-.469.158-.428.158-.686c0-.269-.049-.5-.146-.691a.99.99 0 0 0-.434-.451c-.191-.106-.436-.158-.732-.158-.25 0-.477.05-.68.152s-.357.238-.475.422-.176.394-.176.644h-1.418c0-.453.119-.855.357-1.207a2.43 2.43 0 0 1 .973-.826c.414-.203.879-.304 1.395-.304.551 0 1.031.091 1.441.275s.736.449.967.809.346.804.346 1.335a1.78 1.78 0 0 1-.17.739 2.14 2.14 0 0 1-.504.685c-.223.203-.5.369-.832.498s-.717.188-1.154.188h-1.061v-.785zm0 1.101v-.773h1.061c.5 0 .926.058 1.277.176s.645.279.867.486.385.435.486.697.158.539.158.832c0 .399-.072.754-.217 1.067a2.17 2.17 0 0 1-.603.785c-.262.215-.568.377-.92.486s-.727.164-1.137.164c-.367 0-.719-.051-1.055-.152a2.89 2.89 0 0 1-.902-.451c-.266-.203-.477-.455-.633-.756s-.228-.656-.228-1.055h1.412c0 .254.059.479.176.674s.289.342.504.451.469.164.75.164c.297 0 .553-.053.768-.158a1.1 1.1 0 0 0 .492-.469 1.5 1.5 0 0 0 .176-.75c0-.332-.065-.601-.193-.808s-.312-.36-.551-.457-.52-.153-.844-.153h-.844zm6.568 2.444l-.006 1.007c0 .399-.1.809-.299 1.231s-.463.769-.791 1.043l-.756-.44.299-.533c.09-.179.162-.371.217-.574s.082-.428.082-.674v-1.06h1.254zm6.838-3.621v1.394c0 .668-.066 1.238-.199 1.711s-.316.85-.562 1.143a2.21 2.21 0 0 1-.885.644c-.34.137-.721.205-1.143.205-.336 0-.648-.043-.937-.129s-.543-.22-.773-.404-.428-.42-.592-.709-.285-.643-.375-1.049-.129-.877-.129-1.412v-1.394c0-.672.066-1.239.199-1.7s.322-.841.568-1.131.539-.505.879-.638a3.16 3.16 0 0 1 1.148-.199 3.27 3.27 0 0 1 .938.128 2.19 2.19 0 0 1 .773.393c.23.18.426.414.586.703s.289.631.375 1.037.129.871.129 1.407zm-1.412 1.593v-1.804c0-.34-.02-.639-.059-.897s-.098-.482-.176-.662a1.31 1.31 0 0 0-.281-.445c-.113-.117-.242-.201-.387-.252a1.36 1.36 0 0 0-.486-.082 1.29 1.29 0 0 0-.586.129 1.05 1.05 0 0 0-.434.398c-.117.184-.207.426-.27.727s-.088.658-.088 1.084v1.804c0 .344.02.647.059.908s.098.487.176.674.172.336.281.457.242.203.387.258a1.39 1.39 0 0 0 .486.082c.223 0 .42-.043.592-.129s.316-.222.434-.41.205-.439.264-.744.088-.67.088-1.096zm8.232-1.593v1.394c0 .668-.066 1.238-.199 1.711s-.316.85-.562 1.143a2.21 2.21 0 0 1-.885.644c-.34.137-.721.205-1.143.205-.336 0-.648-.043-.937-.129s-.543-.22-.773-.404-.428-.42-.592-.709-.285-.643-.375-1.049a6.88 6.88 0 0 1-.129-1.412v-1.394c0-.672.066-1.239.199-1.7s.322-.841.568-1.131.539-.505.879-.638a3.16 3.16 0 0 1 1.148-.199 3.27 3.27 0 0 1 .938.128 2.19 2.19 0 0 1 .774.393c.23.18.426.414.586.703s.289.631.375 1.037.129.871.129 1.407zm-1.412 1.593v-1.804c0-.34-.019-.639-.059-.897s-.098-.482-.176-.662-.168-.332-.281-.445-.242-.201-.387-.252a1.36 1.36 0 0 0-.486-.082c-.219 0-.414.043-.586.129a1.05 1.05 0 0 0-.434.398 2.18 2.18 0 0 0-.27.727c-.059.296-.088.658-.088 1.084v1.804a6.2 6.2 0 0 0 .059.908c.039.262.098.487.176.674s.172.336.281.457.242.203.387.258a1.39 1.39 0 0 0 .486.082c.223 0 .42-.043.592-.129s.316-.222.434-.41.205-.439.264-.744.088-.67.088-1.096zm8.232-1.593v1.394c0 .668-.066 1.238-.199 1.711s-.316.85-.562 1.143a2.21 2.21 0 0 1-.885.644c-.34.137-.721.205-1.143.205-.336 0-.648-.043-.937-.129s-.543-.22-.773-.404-.428-.42-.592-.709a3.98 3.98 0 0 1-.375-1.049 6.88 6.88 0 0 1-.129-1.412v-1.394c0-.672.066-1.239.199-1.7s.322-.841.568-1.131.539-.505.879-.638a3.16 3.16 0 0 1 1.148-.199 3.27 3.27 0 0 1 .938.128 2.19 2.19 0 0 1 .773.393c.23.18.426.414.586.703s.289.631.375 1.037.129.871.129 1.407zm-1.412 1.593v-1.804c0-.34-.02-.639-.059-.897s-.098-.482-.176-.662a1.31 1.31 0 0 0-.281-.445c-.113-.117-.242-.201-.387-.252a1.36 1.36 0 0 0-.486-.082c-.219 0-.414.043-.586.129a1.05 1.05 0 0 0-.434.398 2.18 2.18 0 0 0-.27.727c-.059.296-.088.658-.088 1.084v1.804a6.2 6.2 0 0 0 .059.908c.039.262.098.487.176.674s.172.336.281.457.242.203.387.258a1.39 1.39 0 0 0 .486.082c.223 0 .42-.043.592-.129a1.08 1.08 0 0 0 .434-.41c.117-.191.205-.439.264-.744s.088-.67.088-1.096z" fill="#000"/><use xlink:href="#B" y="61" fill="#b6f4a7" fill-opacity=".1" stroke="#7eebb0" class="C"/><path d="M35.452 189.891V197h-.928v-7.109h.928zm2.285 0v.771h-5.493v-.771h5.493zm.19 4.526v-.112c0-.381.055-.734.166-1.06s.27-.613.478-.854.461-.433.757-.567a2.36 2.36 0 0 1 .996-.205c.371 0 .705.069 1.001.205a2.12 2.12 0 0 1 .762.567 2.47 2.47 0 0 1 .483.854c.111.326.166.679.166 1.06v.112c0 .381-.055.734-.166 1.06s-.272.61-.483.854-.461.43-.757.566-.625.201-.996.201-.705-.067-1.001-.201-.55-.325-.762-.566a2.58 2.58 0 0 1-.478-.854c-.111-.326-.166-.679-.166-1.06zm.903-.112v.112c0 .264.031.513.093.747a1.97 1.97 0 0 0 .278.615 1.41 1.41 0 0 0 .474.425c.189.101.408.151.659.151s.464-.05.649-.151.345-.246.469-.425.217-.384.278-.615.098-.483.098-.747v-.112c0-.261-.033-.506-.098-.738a1.9 1.9 0 0 0-.283-.62c-.124-.182-.28-.325-.469-.429s-.404-.157-.654-.157-.466.052-.654.157-.342.247-.469.429-.216.386-.278.62a2.85 2.85 0 0 0-.093.738zm7.251-2.588v.693h-2.856v-.693h2.856zm-1.89-1.284h.903v5.258c0 .179.028.315.083.406s.127.151.215.18a.87.87 0 0 0 .283.044c.075 0 .153-.006.234-.019l.191-.039.005.737a2.01 2.01 0 0 1-.283.063 2.13 2.13 0 0 1-.415.035c-.221 0-.425-.044-.61-.132s-.334-.235-.444-.44-.161-.488-.161-.839v-5.254zm6.064 5.664v-2.72c0-.208-.042-.389-.127-.542a.83.83 0 0 0-.371-.361 1.34 1.34 0 0 0-.615-.127c-.228 0-.428.039-.601.117s-.303.181-.4.307-.142.264-.142.411h-.903c0-.189.049-.376.146-.562s.238-.353.42-.503a2.1 2.1 0 0 1 .664-.361c.26-.091.55-.137.869-.137.384 0 .723.065 1.016.195a1.53 1.53 0 0 1 .693.591c.169.261.254.588.254.982v2.461a3.85 3.85 0 0 0 .044.561c.033.199.08.37.142.513V197h-.942c-.046-.104-.081-.243-.107-.415a3.36 3.36 0 0 1-.039-.488zm.156-2.3l.01.635h-.913c-.257 0-.487.021-.688.063s-.371.099-.508.181a.86.86 0 0 0-.312.307c-.072.121-.107.262-.107.425s.037.318.112.454a.81.81 0 0 0 .337.327c.153.079.34.118.562.118.277 0 .521-.059.732-.176s.379-.261.503-.43.195-.333.205-.493l.386.435c-.023.136-.085.288-.186.454a2.17 2.17 0 0 1-.405.478c-.166.15-.364.275-.596.376s-.485.147-.771.147a2.02 2.02 0 0 1-.942-.21c-.267-.14-.475-.327-.625-.562s-.22-.503-.22-.796a1.61 1.61 0 0 1 .166-.747 1.44 1.44 0 0 1 .478-.542c.208-.146.459-.257.752-.332s.62-.112.982-.112h1.05zm3.149-4.297v7.5h-.908v-7.5h.908zm6.69 4.712h-1.9v-.767h1.9c.368 0 .666-.058.893-.175a1.1 1.1 0 0 0 .498-.489c.107-.208.161-.446.161-.713a1.52 1.52 0 0 0-.161-.688c-.104-.215-.27-.387-.498-.518s-.526-.2-.893-.2h-1.68V197h-.942v-7.109h2.622c.537 0 .991.092 1.362.278s.653.443.845.771.288.699.288 1.119c0 .455-.096.844-.288 1.167a1.84 1.84 0 0 1-.845.737c-.371.166-.825.249-1.362.249zm4.453-1.665V197h-.903v-5.283h.879l.024.83zm1.65-.859l-.005.839c-.075-.016-.147-.026-.215-.029l-.225-.01c-.208 0-.392.033-.552.098s-.295.156-.405.273-.199.258-.264.42a2.03 2.03 0 0 0-.122.528l-.254.146a4.16 4.16 0 0 1 .093-.898 2.45 2.45 0 0 1 .298-.743c.133-.218.303-.387.508-.507s.456-.186.742-.186a1.15 1.15 0 0 1 .225.025.64.64 0 0 1 .176.044zm2.93 5.41c-.368 0-.702-.062-1.001-.186s-.552-.304-.767-.532-.374-.498-.488-.811a2.97 2.97 0 0 1-.171-1.025v-.205a3.23 3.23 0 0 1 .19-1.148c.127-.338.299-.625.518-.859s.465-.412.742-.532.563-.181.859-.181c.378 0 .703.065.976.195a1.79 1.79 0 0 1 .679.547 2.34 2.34 0 0 1 .391.821 3.91 3.91 0 0 1 .127 1.025v.405h-3.945v-.737h3.042v-.068c-.013-.235-.062-.463-.147-.684a1.23 1.23 0 0 0-.391-.547c-.179-.143-.423-.215-.732-.215a1.23 1.23 0 0 0-.566.132c-.173.085-.321.212-.444.381s-.22.376-.288.62-.103.526-.103.845v.205c0 .251.034.487.103.708s.174.41.308.576.301.296.493.391.417.141.664.141c.319 0 .589-.065.81-.195s.415-.304.581-.522l.547.434c-.114.173-.259.337-.435.493s-.392.284-.649.381-.555.147-.903.147zm6.186-1.499a.76.76 0 0 0-.088-.362c-.055-.114-.171-.216-.347-.307s-.433-.176-.781-.244c-.293-.062-.558-.136-.796-.22s-.435-.187-.601-.308-.288-.262-.376-.425a1.18 1.18 0 0 1-.132-.571c0-.208.045-.405.137-.591s.226-.35.395-.493a1.94 1.94 0 0 1 .62-.337c.241-.081.509-.122.806-.122.423 0 .784.075 1.084.225s.529.35.688.6.239.523.239.826h-.903c0-.147-.044-.289-.132-.425s-.21-.256-.376-.347-.363-.137-.601-.137c-.251 0-.454.039-.61.118-.153.074-.265.17-.337.288a.72.72 0 0 0-.103.371c0 .097.016.185.049.263a.58.58 0 0 0 .186.21c.088.062.212.121.371.176a5.73 5.73 0 0 0 .61.166c.433.098.789.215 1.069.352s.488.304.625.503a1.24 1.24 0 0 1 .205.722 1.38 1.38 0 0 1-.147.635c-.094.192-.233.358-.415.498s-.394.244-.645.322-.526.113-.835.113c-.466 0-.859-.083-1.182-.249s-.566-.381-.732-.645-.249-.542-.249-.835h.908c.013.248.085.444.215.591a1.1 1.1 0 0 0 .479.308c.189.058.376.087.562.087.247 0 .454-.032.62-.097s.298-.155.386-.269a.62.62 0 0 0 .132-.39zm4.282 1.499c-.368 0-.701-.062-1.001-.186a2.27 2.27 0 0 1-.767-.532c-.212-.228-.374-.498-.488-.811a2.97 2.97 0 0 1-.171-1.025v-.205c0-.43.064-.812.191-1.148s.299-.625.518-.859.465-.412.742-.532.563-.181.859-.181c.378 0 .703.065.977.195a1.79 1.79 0 0 1 .679.547c.176.231.306.505.391.821s.127.654.127 1.025v.405h-3.945v-.737h3.042v-.068a2.25 2.25 0 0 0-.146-.684 1.23 1.23 0 0 0-.391-.547c-.179-.143-.423-.215-.732-.215a1.23 1.23 0 0 0-.566.132c-.172.085-.321.212-.444.381s-.22.376-.288.62-.103.526-.103.845v.205a2.38 2.38 0 0 0 .103.708 1.81 1.81 0 0 0 .308.576c.137.166.301.296.493.391s.417.141.664.141c.319 0 .589-.065.811-.195s.415-.304.581-.522l.547.434c-.114.173-.259.337-.435.493s-.392.284-.649.381-.555.147-.903.147zm4.014-4.253V197h-.903v-5.283h.855l.049 1.128zm-.215 1.313l-.376-.014c.003-.362.057-.695.161-1.001s.251-.578.439-.806.413-.404.674-.527.555-.191.874-.191c.26 0 .495.036.703.108a1.27 1.27 0 0 1 .532.332c.15.153.264.351.342.595s.117.536.117.884V197h-.908v-3.472c0-.276-.041-.498-.122-.664a.75.75 0 0 0-.356-.366c-.156-.078-.348-.117-.576-.117a1.34 1.34 0 0 0-.615.141 1.48 1.48 0 0 0-.474.391c-.13.166-.233.357-.308.571a2.09 2.09 0 0 0-.108.674zm7.051-2.441v.693h-2.856v-.693h2.856zm-1.89-1.284h.903v5.258c0 .179.028.315.083.406s.127.151.215.18a.87.87 0 0 0 .283.044c.075 0 .153-.006.234-.019l.19-.039.005.737a2.01 2.01 0 0 1-.283.063 2.13 2.13 0 0 1-.415.035c-.221 0-.425-.044-.61-.132s-.334-.235-.444-.44-.161-.488-.161-.839v-5.254zm2.91 6.088a.55.55 0 0 1 .142-.385c.098-.108.238-.161.42-.161s.321.053.415.161a.54.54 0 0 1 .147.385c0 .15-.049.277-.147.381s-.233.157-.415.157-.322-.052-.42-.157-.142-.231-.142-.381zm.005-4.311c0-.153.047-.282.142-.386s.238-.161.42-.161.321.054.415.161.146.233.146.386-.049.277-.146.381-.233.156-.415.156-.322-.052-.42-.156-.142-.231-.142-.381z" class="D"/><path d="M38.363 212.875V214h-5.719v-.967l2.777-3.029.721-.891c.176-.25.299-.474.369-.674s.111-.4.111-.591c0-.27-.051-.506-.152-.709a1.12 1.12 0 0 0-.434-.487c-.191-.121-.424-.181-.697-.181-.316 0-.582.068-.797.205s-.377.326-.486.568-.164.512-.164.82h-1.412c0-.496.113-.949.34-1.359s.555-.742.984-.984.947-.369 1.553-.369c.57 0 1.055.095 1.453.287s.701.463.908.814.316.768.316 1.248a2.52 2.52 0 0 1-.129.791c-.086.262-.209.524-.369.785s-.342.518-.557.78l-.709.785-1.846 2.033h3.938zm2.508-.234l-.006 1.007c0 .399-.1.809-.299 1.231s-.463.769-.791 1.043l-.756-.44.299-.533c.09-.179.162-.371.217-.574s.082-.428.082-.674v-1.06h1.254zm6.855-.967c0 .531-.123.978-.369 1.342s-.582.638-1.008.826c-.422.183-.898.275-1.43.275s-1.01-.092-1.435-.275c-.426-.188-.762-.463-1.008-.826s-.369-.811-.369-1.342a2.18 2.18 0 0 1 .205-.955 2.15 2.15 0 0 1 .58-.744 2.74 2.74 0 0 1 .891-.487c.344-.113.719-.17 1.125-.17.539 0 1.021.1 1.447.299s.76.475 1.002.826.369.762.369 1.231zm-1.418-.07c0-.286-.059-.536-.176-.75a1.24 1.24 0 0 0-.492-.499c-.211-.117-.455-.175-.732-.175s-.525.058-.732.175a1.25 1.25 0 0 0-.486.499 1.58 1.58 0 0 0-.17.75c0 .289.057.539.17.75s.275.365.486.474.459.164.744.164.531-.054.738-.164.367-.267.48-.474.17-.461.17-.75zm1.225-3.891a1.97 1.97 0 0 1-.34 1.137c-.223.332-.531.593-.926.785a3.11 3.11 0 0 1-1.348.281c-.508 0-.961-.094-1.359-.281s-.705-.453-.932-.785-.334-.711-.334-1.137c0-.508.111-.936.334-1.283.227-.352.537-.619.932-.803s.846-.275 1.354-.275.959.091 1.354.275.703.451.926.803c.227.347.34.775.34 1.283zm-1.412.047c0-.254-.051-.477-.152-.668a1.09 1.09 0 0 0-.416-.457c-.18-.11-.392-.164-.639-.164s-.459.052-.639.158-.318.254-.416.445-.147.42-.147.686.049.49.147.685.236.342.416.451a1.23 1.23 0 0 0 .645.165 1.2 1.2 0 0 0 .639-.165c.18-.109.318-.259.416-.451s.146-.424.146-.685zm8.408 1.26v1.394c0 .668-.066 1.238-.199 1.711s-.316.85-.562 1.143a2.21 2.21 0 0 1-.885.644c-.34.137-.721.205-1.143.205-.336 0-.648-.043-.937-.129s-.543-.22-.773-.404-.428-.42-.592-.709-.285-.643-.375-1.049a6.88 6.88 0 0 1-.129-1.412v-1.394c0-.672.066-1.239.199-1.7s.322-.841.568-1.131.539-.505.879-.638a3.16 3.16 0 0 1 1.148-.199 3.27 3.27 0 0 1 .938.128 2.19 2.19 0 0 1 .774.393c.23.18.426.414.586.703s.289.631.375 1.037.129.871.129 1.407zm-1.412 1.593v-1.804c0-.34-.019-.639-.059-.897s-.098-.482-.176-.662-.168-.332-.281-.445-.242-.201-.387-.252a1.36 1.36 0 0 0-.486-.082c-.219 0-.414.043-.586.129a1.05 1.05 0 0 0-.434.398 2.18 2.18 0 0 0-.27.727c-.059.296-.088.658-.088 1.084v1.804a6.2 6.2 0 0 0 .059.908c.039.262.098.487.176.674s.172.336.281.457.242.203.387.258a1.39 1.39 0 0 0 .486.082c.223 0 .42-.043.592-.129s.316-.222.434-.41.205-.439.264-.744.088-.67.088-1.096zm8.232-1.593v1.394c0 .668-.066 1.238-.199 1.711s-.316.85-.562 1.143a2.21 2.21 0 0 1-.885.644c-.34.137-.721.205-1.143.205-.336 0-.648-.043-.937-.129s-.543-.22-.773-.404-.428-.42-.592-.709a3.98 3.98 0 0 1-.375-1.049 6.88 6.88 0 0 1-.129-1.412v-1.394c0-.672.066-1.239.199-1.7s.322-.841.568-1.131.539-.505.879-.638a3.16 3.16 0 0 1 1.148-.199 3.27 3.27 0 0 1 .938.128 2.19 2.19 0 0 1 .773.393c.23.18.426.414.586.703s.289.631.375 1.037.129.871.129 1.407zm-1.412 1.593v-1.804c0-.34-.02-.639-.059-.897s-.098-.482-.176-.662a1.31 1.31 0 0 0-.281-.445c-.113-.117-.242-.201-.387-.252a1.36 1.36 0 0 0-.486-.082c-.219 0-.414.043-.586.129a1.05 1.05 0 0 0-.434.398 2.18 2.18 0 0 0-.27.727c-.059.296-.088.658-.088 1.084v1.804a6.2 6.2 0 0 0 .059.908c.039.262.098.487.176.674s.172.336.281.457.242.203.387.258a1.39 1.39 0 0 0 .486.082c.223 0 .42-.043.592-.129a1.08 1.08 0 0 0 .434-.41c.117-.191.205-.439.264-.744s.088-.67.088-1.096z" fill="#5fbd8a"/><use xlink:href="#C" fill="#fff"/><use xlink:href="#D" stroke="#919191" class="C E"/><path d="M147.299 132.221v.449c0 .534-.067 1.012-.2 1.435s-.326.783-.577 1.08-.551.522-.903.678a2.82 2.82 0 0 1-1.172.235c-.42 0-.805-.078-1.157-.235a2.6 2.6 0 0 1-.908-.678c-.254-.297-.451-.656-.591-1.08s-.21-.901-.21-1.435v-.449c0-.534.068-1.011.205-1.431a3.16 3.16 0 0 1 .591-1.079c.254-.3.555-.527.903-.684s.738-.234 1.158-.234c.432 0 .823.078 1.171.234a2.48 2.48 0 0 1 .904.684c.254.296.447.656.581 1.079s.205.897.205 1.431zm-.933.449v-.459c0-.423-.044-.798-.132-1.123a2.31 2.31 0 0 0-.376-.82c-.166-.222-.369-.389-.61-.503s-.508-.171-.81-.171c-.293 0-.559.057-.796.171s-.437.281-.606.503-.294.494-.386.82-.136.7-.136 1.123v.459c0 .426.045.804.136 1.133s.222.6.391.825a1.74 1.74 0 0 0 .61.503c.238.114.503.171.796.171.306 0 .578-.057.816-.171s.438-.282.6-.503.292-.5.376-.825a4.55 4.55 0 0 0 .127-1.133zm3.814 2.515l1.445-4.468h.923l-1.9 5.283h-.605l.137-.815zm-1.206-4.468l1.489 4.492.102.791h-.605l-1.914-5.283h.928zm6.567 5.381c-.368 0-.701-.062-1.001-.186s-.552-.304-.767-.532-.374-.498-.488-.811-.171-.654-.171-1.025v-.205c0-.43.064-.812.191-1.148s.299-.625.517-.859a2.22 2.22 0 0 1 .742-.532c.277-.121.564-.181.86-.181.377 0 .703.065.976.195a1.79 1.79 0 0 1 .679.547c.176.231.306.505.391.821s.127.654.127 1.025v.405h-3.946v-.737h3.042v-.068c-.013-.235-.061-.463-.146-.684s-.212-.404-.391-.547-.423-.215-.732-.215c-.205 0-.394.044-.567.132s-.32.212-.444.381-.22.376-.288.62-.103.526-.103.845v.205c0 .251.035.487.103.708a1.81 1.81 0 0 0 .308.576c.136.166.301.296.493.391a1.51 1.51 0 0 0 .664.141c.319 0 .589-.065.81-.195s.415-.304.581-.522l.547.434c-.114.173-.258.337-.434.493s-.393.284-.65.381-.555.147-.903.147zm4.014-4.551V136h-.904v-5.283h.879l.025.83zm1.65-.859l-.005.839a1.3 1.3 0 0 0-.215-.029l-.224-.01a1.45 1.45 0 0 0-.552.098 1.13 1.13 0 0 0-.405.273c-.111.118-.199.258-.264.42a2.04 2.04 0 0 0-.122.528l-.254.146c0-.319.031-.618.093-.898s.164-.528.298-.743.302-.387.507-.507.456-.186.743-.186c.065 0 .14.008.224.025a.63.63 0 0 1 .176.044zm3.755 4.409v-2.72a1.1 1.1 0 0 0-.127-.542c-.081-.156-.205-.277-.371-.361a1.34 1.34 0 0 0-.615-.127c-.228 0-.428.039-.601.117s-.303.181-.4.307a.67.67 0 0 0-.142.411h-.903c0-.189.049-.376.146-.562a1.66 1.66 0 0 1 .42-.503c.186-.153.407-.273.664-.361s.55-.137.869-.137c.385 0 .723.065 1.016.195a1.53 1.53 0 0 1 .693.591c.17.261.254.588.254.982v2.461c0 .175.015.363.044.561a2.2 2.2 0 0 0 .142.513V136h-.943c-.045-.104-.081-.243-.107-.415a3.36 3.36 0 0 1-.039-.488zm.156-2.3l.01.635h-.913c-.257 0-.487.021-.689.063s-.371.099-.507.181-.241.184-.313.307-.107.262-.107.425.037.318.112.454.187.246.337.327.34.118.561.118a1.49 1.49 0 0 0 .733-.176c.211-.117.379-.261.503-.43s.195-.333.205-.493l.386.435a1.32 1.32 0 0 1-.186.454c-.101.166-.236.325-.405.478s-.365.275-.596.376-.485.147-.771.147c-.358 0-.673-.07-.943-.21a1.61 1.61 0 0 1-.625-.562 1.49 1.49 0 0 1-.22-.796c0-.283.056-.532.166-.747a1.45 1.45 0 0 1 .479-.542c.208-.146.459-.257.752-.332a3.96 3.96 0 0 1 .981-.112h1.05zm3.15-4.297v7.5h-.909v-7.5h.909zm2.431 0v7.5h-.908v-7.5h.908z" class="D"/><path d="M142.781 151.887h.117c.54 0 .989-.071 1.348-.211s.652-.344.867-.598.369-.553.463-.896.141-.717.141-1.12v-1.47c0-.348-.037-.653-.112-.914a1.87 1.87 0 0 0-.304-.662c-.129-.18-.28-.315-.451-.405s-.35-.134-.545-.134c-.215 0-.409.048-.58.146a1.28 1.28 0 0 0-.428.393c-.113.164-.201.357-.264.58a2.73 2.73 0 0 0-.088.703 2.83 2.83 0 0 0 .082.68 1.95 1.95 0 0 0 .258.574c.113.168.256.301.428.398s.373.147.603.147c.219 0 .42-.041.604-.123a1.57 1.57 0 0 0 .48-.346c.137-.145.245-.307.323-.486s.121-.364.129-.551l.539.164c0 .297-.063.59-.188.879a2.73 2.73 0 0 1-.51.785 2.48 2.48 0 0 1-.755.562c-.286.141-.596.211-.932.211-.406 0-.766-.076-1.078-.228s-.567-.367-.774-.633-.355-.57-.457-.914-.152-.705-.152-1.084c0-.41.062-.795.187-1.154s.307-.676.545-.95.528-.492.868-.644.732-.234 1.166-.234c.46 0 .865.089 1.212.269a2.56 2.56 0 0 1 .879.744c.239.317.418.684.539 1.102s.182.867.182 1.347v.498c0 .504-.045.991-.135 1.459s-.236.897-.439 1.295-.463.743-.791 1.043-.723.53-1.196.698-1.019.246-1.652.246h-.129v-1.166zm11.262-1.213c0 .531-.123.978-.369 1.342s-.582.638-1.008.826c-.422.183-.898.275-1.43.275a3.6 3.6 0 0 1-1.435-.275c-.426-.188-.762-.463-1.008-.826s-.369-.811-.369-1.342c0-.352.068-.67.205-.955a2.15 2.15 0 0 1 .58-.744c.254-.211.551-.373.891-.487s.718-.17 1.125-.17c.539 0 1.021.1 1.447.299a2.44 2.44 0 0 1 1.002.826c.246.352.369.762.369 1.231zm-1.418-.07a1.54 1.54 0 0 0-.176-.75c-.117-.215-.281-.381-.492-.499s-.455-.175-.732-.175-.526.058-.733.175a1.25 1.25 0 0 0-.486.499c-.113.214-.17.464-.17.75s.057.539.17.75.275.365.486.474.459.164.744.164.532-.054.739-.164.367-.267.48-.474.17-.461.17-.75zm1.225-3.891c0 .426-.114.805-.34 1.137s-.531.593-.926.785-.844.281-1.348.281-.961-.094-1.359-.281-.705-.453-.932-.785c-.222-.332-.334-.711-.334-1.137 0-.508.112-.936.334-1.283.227-.352.537-.619.932-.803s.846-.275 1.353-.275.959.091 1.354.275.703.451.926.803c.226.347.34.775.34 1.283zm-1.412.047c0-.254-.051-.477-.153-.668-.097-.196-.236-.348-.416-.457s-.392-.164-.639-.164a1.23 1.23 0 0 0-.638.158 1.06 1.06 0 0 0-.416.445 1.49 1.49 0 0 0-.147.686 1.51 1.51 0 0 0 .147.685 1.09 1.09 0 0 0 .416.451c.183.11.398.165.644.165s.459-.055.639-.165a1.1 1.1 0 0 0 .416-.451 1.51 1.51 0 0 0 .147-.685zm2.789-.199v-.452c0-.324.07-.619.211-.884a1.6 1.6 0 0 1 .615-.639c.269-.16.593-.24.972-.24.391 0 .719.08.985.24s.474.373.615.639.211.56.211.884v.452c0 .316-.07.607-.211.873s-.34.478-.609.638-.592.24-.979.24-.711-.08-.984-.24-.475-.373-.615-.638-.211-.557-.211-.873zm.978-.452v.452a1.14 1.14 0 0 0 .088.445c.062.14.156.254.281.34s.28.129.463.129.34-.043.457-.129a.78.78 0 0 0 .27-.34 1.16 1.16 0 0 0 .088-.445v-.452c0-.16-.032-.31-.094-.451s-.149-.26-.27-.346-.275-.128-.463-.128c-.179 0-.332.043-.457.128s-.213.202-.275.346-.088.291-.088.451zm3.135 5.256v-.457c0-.32.07-.613.211-.879s.351-.478.621-.638.594-.241.973-.241c.39 0 .718.08.984.241s.473.373.609.638.211.559.211.879v.457a1.84 1.84 0 0 1-.211.879c-.136.266-.338.479-.603.639s-.59.24-.973.24-.717-.08-.99-.24a1.64 1.64 0 0 1-.621-.639 1.84 1.84 0 0 1-.211-.879zm.984-.457v.457a1.08 1.08 0 0 0 .094.446.88.88 0 0 0 .287.345c.125.086.275.129.451.129.199 0 .36-.043.481-.129s.207-.203.258-.34.082-.291.082-.451v-.457c0-.16-.032-.31-.094-.451a.76.76 0 0 0-.276-.34c-.121-.086-.275-.129-.462-.129s-.336.043-.457.129a.81.81 0 0 0-.276.34c-.058.141-.088.291-.088.451zm1.172-5.22l-4.166 6.667-.721-.416 4.166-6.668.721.417z" fill="#000"/><use xlink:href="#C" y="61" fill="#fee8e8" fill-opacity=".7"/><use xlink:href="#D" y="61" stroke="#f21d1d" class="C E"/><path d="M144.452 189.891V197h-.928v-7.109h.928zm2.285 0v.771h-5.493v-.771h5.493zm.191 4.526v-.112c0-.381.055-.734.166-1.06s.27-.613.478-.854a2.14 2.14 0 0 1 .757-.567c.296-.136.628-.205.996-.205s.705.069 1.001.205.554.322.762.567a2.47 2.47 0 0 1 .483.854c.111.326.166.679.166 1.06v.112c0 .381-.055.734-.166 1.06s-.272.61-.483.854-.461.43-.757.566-.625.201-.996.201-.705-.067-1.001-.201a2.26 2.26 0 0 1-.762-.566c-.208-.244-.368-.529-.478-.854s-.166-.679-.166-1.06zm.903-.112v.112c0 .264.031.513.093.747s.154.436.278.615.285.321.474.425.408.151.659.151.464-.05.649-.151.345-.246.469-.425a1.94 1.94 0 0 0 .278-.615 2.74 2.74 0 0 0 .098-.747v-.112a2.68 2.68 0 0 0-.098-.738c-.061-.234-.156-.441-.283-.62a1.34 1.34 0 0 0-.469-.429c-.185-.105-.403-.157-.654-.157s-.465.052-.654.157a1.4 1.4 0 0 0-.469.429 1.96 1.96 0 0 0-.278.62c-.062.232-.093.477-.093.738zm7.251-2.588v.693h-2.856v-.693h2.856zm-1.89-1.284h.904v5.258c0 .179.027.315.083.406s.127.151.215.18.182.044.283.044c.075 0 .153-.006.234-.019l.191-.039.004.737c-.071.023-.166.044-.283.063a2.13 2.13 0 0 1-.415.035c-.221 0-.425-.044-.61-.132s-.334-.235-.444-.44-.162-.488-.162-.839v-5.254zm6.065 5.664v-2.72a1.1 1.1 0 0 0-.127-.542c-.081-.156-.205-.277-.371-.361a1.34 1.34 0 0 0-.615-.127c-.228 0-.429.039-.601.117s-.303.181-.4.307a.67.67 0 0 0-.142.411h-.903c0-.189.048-.376.146-.562a1.66 1.66 0 0 1 .42-.503c.186-.153.407-.273.664-.361s.55-.137.869-.137c.384 0 .723.065 1.016.195a1.53 1.53 0 0 1 .693.591c.17.261.254.588.254.982v2.461c0 .175.015.363.044.561a2.2 2.2 0 0 0 .142.513V197h-.943c-.045-.104-.081-.243-.107-.415a3.36 3.36 0 0 1-.039-.488zm.156-2.3l.01.635h-.913c-.257 0-.487.021-.689.063a1.56 1.56 0 0 0-.508.181c-.136.081-.24.184-.312.307s-.107.262-.107.425.037.318.112.454.187.246.337.327.34.118.561.118a1.49 1.49 0 0 0 .733-.176c.211-.117.379-.261.503-.43s.195-.333.205-.493l.385.435c-.022.136-.084.288-.185.454s-.236.325-.405.478-.365.275-.596.376-.485.147-.772.147c-.358 0-.672-.07-.942-.21a1.61 1.61 0 0 1-.625-.562 1.49 1.49 0 0 1-.22-.796c0-.283.056-.532.166-.747a1.45 1.45 0 0 1 .479-.542c.208-.146.459-.257.752-.332a3.96 3.96 0 0 1 .981-.112h1.05zm3.149-4.297v7.5h-.908v-7.5h.908zm6.7 1.021L166.908 197h-.962l2.71-7.109h.62l-.014.63zm1.972 6.479l-2.358-6.479-.015-.63h.62l2.72 7.109h-.967zm-.122-2.632v.772h-3.994v-.772h3.994zm1.9-4.868h.908v6.475l-.078 1.025h-.83v-7.5zm4.477 4.814v.103a3.99 3.99 0 0 1-.136 1.069c-.092.326-.225.609-.401.85s-.39.428-.644.561-.546.201-.874.201c-.336 0-.63-.057-.884-.171a1.74 1.74 0 0 1-.635-.503 2.61 2.61 0 0 1-.415-.791c-.101-.309-.171-.658-.21-1.045v-.449c.039-.391.109-.741.21-1.05a2.61 2.61 0 0 1 .415-.791 1.67 1.67 0 0 1 .635-.503c.25-.117.542-.176.874-.176s.626.065.884.195a1.74 1.74 0 0 1 .644.547c.176.238.309.523.401.855s.136.695.136 1.098zm-.908.103v-.103c0-.263-.024-.511-.073-.742s-.127-.439-.235-.615a1.17 1.17 0 0 0-.424-.42c-.176-.104-.393-.156-.65-.156-.228 0-.426.039-.595.117a1.29 1.29 0 0 0-.425.317c-.117.131-.214.28-.288.45s-.126.338-.162.517v1.177a2.54 2.54 0 0 0 .254.659c.121.208.28.379.479.513s.451.2.747.2c.244 0 .452-.049.625-.146a1.19 1.19 0 0 0 .425-.415c.11-.176.192-.38.244-.611a3.37 3.37 0 0 0 .078-.742zm5.127 1.182c0-.131-.029-.251-.088-.362s-.171-.216-.347-.307-.433-.176-.781-.244c-.293-.062-.558-.136-.796-.22a2.41 2.41 0 0 1-.6-.308c-.163-.12-.288-.262-.376-.425a1.18 1.18 0 0 1-.132-.571c0-.208.045-.405.137-.591s.226-.35.395-.493.379-.255.62-.337a2.52 2.52 0 0 1 .806-.122c.423 0 .784.075 1.084.225s.529.35.688.6a1.49 1.49 0 0 1 .24.826h-.904c0-.147-.044-.289-.132-.425s-.21-.256-.376-.347a1.21 1.21 0 0 0-.6-.137c-.251 0-.454.039-.61.118a.77.77 0 0 0-.337.288c-.069.117-.103.24-.103.371a.67.67 0 0 0 .049.263c.036.075.098.145.185.21s.212.121.372.176a5.71 5.71 0 0 0 .61.166c.433.098.789.215 1.069.352s.489.304.625.503.205.439.205.722a1.39 1.39 0 0 1-.146.635c-.095.192-.233.358-.415.498s-.394.244-.645.322a2.87 2.87 0 0 1-.835.113c-.465 0-.859-.083-1.181-.249s-.567-.381-.733-.645-.249-.542-.249-.835h.908c.013.248.085.444.215.591a1.1 1.1 0 0 0 .479.308c.189.058.376.087.561.087a1.71 1.71 0 0 0 .62-.097.86.86 0 0 0 .386-.269.62.62 0 0 0 .132-.39zm4.282 1.499c-.368 0-.701-.062-1.001-.186a2.27 2.27 0 0 1-.766-.532c-.212-.228-.375-.498-.489-.811s-.171-.654-.171-1.025v-.205c0-.43.064-.812.191-1.148s.299-.625.517-.859.466-.412.743-.532a2.12 2.12 0 0 1 .859-.181c.378 0 .703.065.977.195a1.79 1.79 0 0 1 .678.547c.176.231.306.505.391.821s.127.654.127 1.025v.405h-3.945v-.737h3.042v-.068a2.24 2.24 0 0 0-.147-.684 1.22 1.22 0 0 0-.391-.547c-.179-.143-.423-.215-.732-.215-.205 0-.394.044-.566.132s-.321.212-.445.381-.219.376-.288.62a3.16 3.16 0 0 0-.102.845v.205c0 .251.034.487.102.708a1.81 1.81 0 0 0 .308.576c.137.166.301.296.493.391s.417.141.664.141c.319 0 .589-.065.811-.195s.415-.304.581-.522l.547.434c-.114.173-.259.337-.435.493a2.05 2.05 0 0 1-.649.381c-.254.098-.555.147-.904.147zm4.014-4.253V197h-.903v-5.283h.854l.049 1.128zm-.215 1.313l-.376-.014c.003-.362.057-.695.161-1.001s.251-.578.44-.806.413-.404.674-.527.555-.191.874-.191c.26 0 .494.036.703.108s.385.179.532.332.264.351.342.595.117.536.117.884V197h-.908v-3.472c0-.276-.041-.498-.122-.664s-.201-.291-.357-.366a1.28 1.28 0 0 0-.576-.117c-.225 0-.43.047-.615.141a1.48 1.48 0 0 0-.474.391c-.13.166-.233.357-.308.571a2.11 2.11 0 0 0-.107.674zm7.051-2.441v.693h-2.857v-.693h2.857zm-1.89-1.284h.904v5.258c0 .179.027.315.083.406s.126.151.214.18.183.044.284.044c.074 0 .153-.006.234-.019l.19-.039.005.737c-.071.023-.166.044-.283.063a2.13 2.13 0 0 1-.415.035c-.221 0-.425-.044-.61-.132s-.334-.235-.445-.44-.161-.488-.161-.839v-5.254zm2.91 6.088c0-.153.048-.281.142-.385s.238-.161.42-.161.321.053.415.161a.54.54 0 0 1 .146.385c0 .15-.048.277-.146.381s-.233.157-.415.157-.322-.052-.42-.157a.55.55 0 0 1-.142-.381zm.005-4.311a.55.55 0 0 1 .142-.386c.097-.107.237-.161.42-.161s.32.054.415.161.146.233.146.386a.54.54 0 0 1-.146.381c-.095.104-.233.156-.415.156s-.323-.052-.42-.156-.142-.231-.142-.381z" class="D"/><path d="M147.363 212.875V214h-5.718v-.967l2.777-3.029.721-.891c.175-.25.298-.474.369-.674a1.72 1.72 0 0 0 .111-.591c0-.27-.051-.506-.152-.709a1.12 1.12 0 0 0-.434-.487c-.191-.121-.424-.181-.697-.181-.317 0-.582.068-.797.205s-.377.326-.486.568-.164.512-.164.82h-1.413a2.77 2.77 0 0 1 .34-1.359c.227-.414.555-.742.985-.984s.947-.369 1.552-.369c.571 0 1.055.095 1.454.287s.701.463.908.814.316.768.316 1.248a2.52 2.52 0 0 1-.129.791 3.73 3.73 0 0 1-.369.785c-.156.258-.342.518-.557.78l-.709.785-1.845 2.033h3.937zm6.662-3.855v1.394c0 .668-.066 1.238-.199 1.711s-.316.85-.562 1.143-.541.507-.885.644-.721.205-1.143.205a3.27 3.27 0 0 1-.937-.129c-.285-.086-.543-.22-.774-.404s-.427-.42-.591-.709-.286-.643-.375-1.049-.129-.877-.129-1.412v-1.394c0-.672.066-1.239.199-1.7s.322-.841.568-1.131.539-.505.879-.638.727-.199 1.149-.199a3.27 3.27 0 0 1 .937.128c.289.082.547.213.774.393s.425.414.585.703c.165.285.29.631.375 1.037s.129.871.129 1.407zm-1.412 1.593v-1.804c0-.34-.019-.639-.058-.897s-.098-.482-.176-.662-.168-.332-.281-.445-.243-.201-.387-.252a1.36 1.36 0 0 0-.486-.082 1.29 1.29 0 0 0-.586.129c-.172.082-.317.214-.434.398s-.207.426-.269.727-.088.658-.088 1.084v1.804c0 .344.019.647.058.908a2.85 2.85 0 0 0 .176.674 1.62 1.62 0 0 0 .281.457 1.05 1.05 0 0 0 .387.258 1.39 1.39 0 0 0 .486.082c.223 0 .42-.043.592-.129a1.08 1.08 0 0 0 .434-.41c.117-.191.205-.439.263-.744a5.86 5.86 0 0 0 .088-1.096zm8.233-1.593v1.394c0 .668-.067 1.238-.2 1.711-.128.469-.316.85-.562 1.143s-.541.507-.885.644-.72.205-1.142.205c-.336 0-.649-.043-.938-.129a2.28 2.28 0 0 1-.773-.404c-.231-.184-.428-.42-.592-.709s-.285-.643-.375-1.049-.129-.877-.129-1.412v-1.394c0-.672.066-1.239.199-1.7s.322-.841.569-1.131.539-.505.878-.638c.344-.133.727-.199 1.149-.199.34 0 .652.043.937.128s.547.213.774.393a2.28 2.28 0 0 1 .586.703c.164.285.289.631.375 1.037s.129.871.129 1.407zm-1.412 1.593v-1.804c0-.34-.02-.639-.059-.897s-.098-.482-.176-.662-.168-.332-.281-.445a.99.99 0 0 0-.387-.252c-.144-.055-.306-.082-.486-.082a1.29 1.29 0 0 0-.586.129c-.172.082-.316.214-.434.398s-.207.426-.269.727-.088.658-.088 1.084v1.804a6.21 6.21 0 0 0 .059.908c.039.262.097.487.175.674a1.6 1.6 0 0 0 .282.457c.113.118.242.203.386.258s.311.082.487.082a1.3 1.3 0 0 0 .591-.129 1.08 1.08 0 0 0 .434-.41c.117-.191.205-.439.264-.744s.088-.67.088-1.096z" fill="#ff6d6d"/><path stroke="#ededed" d="M20 95.69h208.889" class="F"/><path stroke="#b0dffa" d="M20 95h104.445" class="B"/><g fill="#000"><path d="M51.642 79.515h1.031c-.054.494-.195.936-.424 1.326s-.553.7-.971.929-.941.338-1.567.338c-.458 0-.875-.086-1.251-.258a2.78 2.78 0 0 1-.961-.73c-.268-.319-.476-.7-.623-1.143s-.215-.945-.215-1.492v-.778c0-.547.072-1.043.215-1.487s.356-.83.628-1.149a2.8 2.8 0 0 1 .993-.735c.386-.172.821-.258 1.304-.258.59 0 1.09.111 1.498.333s.725.53.95.923.37.843.424 1.358h-1.031c-.05-.365-.143-.678-.279-.939a1.45 1.45 0 0 0-.58-.612c-.25-.143-.578-.215-.982-.215-.347 0-.653.066-.918.199a1.85 1.85 0 0 0-.66.564c-.175.243-.308.535-.397.875s-.134.718-.134 1.133v.789c0 .383.039.742.118 1.079a2.87 2.87 0 0 0 .37.886c.165.254.374.454.628.601s.555.215.902.215c.44 0 .791-.07 1.052-.209a1.37 1.37 0 0 0 .59-.601c.136-.261.233-.574.29-.939zm3.371-5.759V82h-.998v-8.245h.998zm5.019 7.252v-2.99c0-.229-.047-.428-.14-.596s-.225-.304-.408-.397-.408-.139-.676-.139c-.251 0-.471.043-.66.129a1.15 1.15 0 0 0-.44.338.74.74 0 0 0-.156.451h-.993c0-.207.054-.413.161-.617s.261-.388.462-.553.447-.301.73-.397.605-.15.956-.15c.422 0 .794.072 1.116.215a1.67 1.67 0 0 1 .762.65c.186.286.279.646.279 1.079v2.705a4.24 4.24 0 0 0 .048.617 2.41 2.41 0 0 0 .156.564V82h-1.036c-.05-.115-.09-.267-.118-.456s-.043-.372-.043-.537zm.172-2.528l.011.698H59.21a3.71 3.71 0 0 0-.757.07c-.222.043-.408.109-.558.199s-.265.202-.343.338-.118.288-.118.467a1.02 1.02 0 0 0 .123.499.9.9 0 0 0 .37.36c.168.086.374.129.617.129.304 0 .573-.064.805-.193s.417-.286.553-.472.215-.367.225-.542l.424.478a1.44 1.44 0 0 1-.204.499c-.111.182-.259.358-.446.526s-.401.302-.655.413-.533.161-.848.161c-.394 0-.739-.077-1.036-.231a1.77 1.77 0 0 1-.687-.617c-.161-.261-.241-.553-.241-.875 0-.311.061-.585.182-.821s.297-.438.526-.596a2.5 2.5 0 0 1 .827-.365 4.36 4.36 0 0 1 1.079-.123h1.154zm5.765 1.981c0-.143-.032-.276-.097-.397s-.188-.238-.381-.338-.476-.193-.859-.268a6.79 6.79 0 0 1-.875-.242 2.65 2.65 0 0 1-.66-.338 1.42 1.42 0 0 1-.413-.467c-.097-.179-.145-.388-.145-.628 0-.229.05-.445.15-.649a1.74 1.74 0 0 1 .435-.542 2.11 2.11 0 0 1 .682-.37c.265-.09.56-.134.886-.134.465 0 .862.082 1.192.247s.582.385.757.66a1.64 1.64 0 0 1 .263.907h-.993c0-.161-.048-.317-.145-.467a1.07 1.07 0 0 0-.413-.381c-.179-.1-.399-.15-.66-.15-.276 0-.499.043-.671.129s-.292.188-.37.317-.113.265-.113.408c0 .107.018.204.054.29s.107.159.204.231.233.132.408.193.399.122.671.182c.476.107.868.236 1.175.386s.537.335.687.553.225.483.225.794c0 .254-.054.487-.161.698s-.256.394-.456.547-.433.268-.709.354-.578.123-.918.123c-.512 0-.945-.091-1.299-.274s-.623-.419-.805-.709-.274-.596-.274-.918h.998c.014.272.093.489.236.65s.318.27.526.338.413.097.617.097c.272 0 .499-.036.682-.107a.95.95 0 0 0 .424-.295c.097-.125.145-.268.145-.429zm5.679 0c0-.143-.032-.276-.097-.397s-.188-.238-.381-.338-.476-.193-.859-.268c-.322-.068-.614-.148-.875-.242s-.478-.206-.66-.338a1.42 1.42 0 0 1-.413-.467c-.097-.179-.145-.388-.145-.628 0-.229.05-.445.15-.649a1.74 1.74 0 0 1 .435-.542c.19-.157.417-.281.682-.37s.56-.134.886-.134c.465 0 .862.082 1.192.247s.582.385.757.66a1.64 1.64 0 0 1 .263.907h-.993c0-.161-.048-.317-.145-.467a1.07 1.07 0 0 0-.413-.381c-.179-.1-.399-.15-.66-.15-.276 0-.499.043-.671.129s-.292.188-.37.317-.113.265-.113.408c0 .107.018.204.054.29a.64.64 0 0 0 .204.231c.097.068.233.132.408.193a6.29 6.29 0 0 0 .671.182c.476.107.868.236 1.175.386s.537.335.687.553.225.483.225.794c0 .254-.054.487-.161.698s-.256.394-.456.547-.433.268-.709.354-.578.123-.918.123c-.512 0-.945-.091-1.299-.274s-.623-.419-.805-.709-.274-.596-.274-.918h.998c.014.272.093.489.236.65s.319.27.526.338.413.097.617.097c.272 0 .499-.036.682-.107s.327-.17.424-.295.145-.268.145-.429zm3.29-3.355V82h-.993v-5.808h.966l.027.912zm1.814-.945l-.005.923c-.082-.018-.161-.029-.236-.032s-.154-.011-.247-.011c-.229 0-.431.036-.606.107s-.324.172-.446.301-.218.283-.29.462a2.22 2.22 0 0 0-.134.58l-.279.161a4.57 4.57 0 0 1 .102-.988c.072-.308.181-.58.327-.816s.333-.426.558-.558.501-.204.816-.204c.072 0 .154.009.247.027s.157.031.193.048zm.547 3.001v-.123a3.6 3.6 0 0 1 .183-1.165c.122-.361.297-.674.526-.939s.506-.476.832-.623.691-.225 1.095-.225.775.075 1.1.225.608.354.837.623a2.72 2.72 0 0 1 .531.939c.122.358.183.746.183 1.165v.123c0 .419-.061.807-.183 1.165s-.299.671-.531.939-.506.472-.832.623-.687.22-1.095.22a2.65 2.65 0 0 1-1.1-.22 2.49 2.49 0 0 1-.837-.623c-.229-.268-.404-.582-.526-.939s-.183-.746-.183-1.165zm.993-.123v.123c0 .29.034.564.102.821s.17.479.306.676a1.55 1.55 0 0 0 .521.467c.208.111.449.166.725.166s.51-.055.714-.166a1.5 1.5 0 0 0 .515-.467c.136-.197.238-.422.306-.676s.107-.531.107-.821v-.123c0-.286-.036-.556-.107-.81s-.172-.485-.311-.682a1.48 1.48 0 0 0-.515-.472c-.204-.115-.444-.172-.719-.172s-.512.057-.719.172-.376.272-.515.472-.238.424-.306.682-.102.524-.102.81zm5.276.123v-.123c0-.419.061-.807.183-1.165s.297-.674.526-.939a2.35 2.35 0 0 1 .832-.623c.326-.15.691-.225 1.095-.225s.775.075 1.1.225.608.354.837.623a2.72 2.72 0 0 1 .531.939c.122.358.182.746.182 1.165v.123c0 .419-.061.807-.182 1.165s-.299.671-.531.939-.506.472-.832.623-.687.22-1.095.22a2.65 2.65 0 0 1-1.1-.22 2.49 2.49 0 0 1-.837-.623c-.229-.268-.404-.582-.526-.939s-.183-.746-.183-1.165zm.993-.123v.123c0 .29.034.564.102.821s.17.479.306.676a1.55 1.55 0 0 0 .521.467c.208.111.449.166.725.166s.51-.055.714-.166a1.5 1.5 0 0 0 .515-.467c.136-.197.238-.422.306-.676a3.06 3.06 0 0 0 .107-.821v-.123a2.98 2.98 0 0 0-.107-.81c-.068-.258-.172-.485-.311-.682a1.48 1.48 0 0 0-.515-.472c-.204-.115-.444-.172-.719-.172s-.512.057-.719.172-.376.272-.515.472-.238.424-.306.682-.102.524-.102.81zm6.527-1.691V82h-.998v-5.808h.945l.054 1.154zm-.204 1.53l-.462-.016c.004-.397.056-.764.156-1.1a2.61 2.61 0 0 1 .445-.886 1.98 1.98 0 0 1 .735-.58 2.35 2.35 0 0 1 1.02-.209 2.3 2.3 0 0 1 .751.118c.229.075.428.195.596.36s.299.376.392.633.14.569.14.934V82h-.993v-3.822c0-.304-.052-.547-.156-.73a.89.89 0 0 0-.429-.397 1.55 1.55 0 0 0-.655-.129c-.293 0-.539.052-.735.156s-.354.247-.472.429-.204.392-.258.628a3.51 3.51 0 0 0-.075.741zm3.763-.547l-.665.204a2.92 2.92 0 0 1 .156-.918 2.49 2.49 0 0 1 .446-.784 2.11 2.11 0 0 1 .725-.542c.286-.136.614-.204.982-.204.311 0 .587.041.827.123s.447.209.612.381.295.385.381.649.129.58.129.945V82h-.998v-3.827c0-.326-.052-.578-.156-.757a.81.81 0 0 0-.429-.381c-.183-.075-.401-.113-.655-.113-.218 0-.411.038-.58.113s-.31.179-.424.311a1.36 1.36 0 0 0-.263.445c-.057.168-.086.347-.086.537z"/><path opacity=".55" d="M158.858 74.185V82h-1.02v-7.815h1.02zm2.512 0v.848h-6.038v-.848h6.038zm2.883 7.923a2.86 2.86 0 0 1-1.101-.204c-.325-.14-.606-.335-.842-.585s-.412-.547-.537-.891-.188-.719-.188-1.127v-.225c0-.472.07-.893.209-1.261a2.84 2.84 0 0 1 .569-.945 2.44 2.44 0 0 1 .816-.585c.304-.132.619-.199.945-.199.415 0 .773.072 1.073.215a1.96 1.96 0 0 1 .747.601c.193.254.336.555.429.902s.14.719.14 1.127v.446h-4.338v-.811h3.345v-.075a2.47 2.47 0 0 0-.162-.751c-.089-.243-.232-.444-.429-.601s-.465-.236-.805-.236c-.226 0-.433.048-.623.145a1.33 1.33 0 0 0-.488.419c-.136.186-.242.413-.317.682a3.46 3.46 0 0 0-.113.929v.225a2.63 2.63 0 0 0 .113.778 2.01 2.01 0 0 0 .338.633 1.63 1.63 0 0 0 .542.429c.215.104.458.156.73.156.351 0 .648-.072.891-.215a2.19 2.19 0 0 0 .639-.574l.601.478c-.125.19-.284.37-.477.542s-.432.311-.714.419-.61.161-.993.161zm6.843-1.1v-2.99c0-.229-.046-.428-.139-.596a.92.92 0 0 0-.408-.397 1.48 1.48 0 0 0-.676-.139 1.59 1.59 0 0 0-.661.129c-.186.086-.332.199-.44.338a.74.74 0 0 0-.155.451h-.993c0-.207.053-.413.161-.617s.261-.388.461-.553.448-.301.73-.397.605-.15.956-.15c.422 0 .794.072 1.116.215s.58.36.762.65.279.646.279 1.079v2.705c0 .193.017.399.049.617s.087.406.155.564V82h-1.036c-.05-.115-.089-.267-.118-.456a3.77 3.77 0 0 1-.043-.537zm.172-2.528l.011.698h-1.004c-.282 0-.535.023-.757.07s-.408.109-.558.199a.94.94 0 0 0-.343.338c-.079.132-.118.288-.118.467s.041.349.123.499a.9.9 0 0 0 .37.36c.169.086.374.129.618.129.304 0 .572-.064.805-.193s.417-.286.553-.472.214-.367.225-.542l.424.478a1.44 1.44 0 0 1-.204.499c-.111.182-.259.358-.445.526s-.401.302-.655.413-.533.161-.848.161a2.22 2.22 0 0 1-1.036-.231c-.294-.154-.523-.36-.687-.617s-.242-.553-.242-.875c0-.311.061-.585.183-.821a1.58 1.58 0 0 1 .526-.596c.229-.161.504-.283.826-.365s.682-.123 1.079-.123h1.154zm4.708 2.813c.236 0 .454-.048.654-.145s.365-.229.494-.397.202-.367.22-.585h.945a1.77 1.77 0 0 1-.349.961c-.211.293-.488.531-.832.714s-.721.268-1.132.268c-.437 0-.818-.077-1.144-.231a2.27 2.27 0 0 1-.805-.633c-.211-.268-.37-.576-.478-.923s-.155-.721-.155-1.111v-.225c0-.39.052-.759.155-1.106s.267-.66.478-.929a2.27 2.27 0 0 1 .805-.633c.326-.154.707-.231 1.144-.231.454 0 .851.093 1.191.279s.607.433.8.751a2.17 2.17 0 0 1 .322 1.073h-.945c-.018-.24-.086-.456-.204-.649a1.27 1.27 0 0 0-.472-.462 1.32 1.32 0 0 0-.692-.177c-.305 0-.56.061-.768.182a1.34 1.34 0 0 0-.488.483 2.24 2.24 0 0 0-.258.671c-.05.243-.075.492-.075.746v.225c0 .254.025.505.075.752s.134.471.252.671.285.361.489.483.465.177.773.177zm4.423-7.536V82h-.993v-8.245h.993zm-.237 5.121l-.413-.016a3.52 3.52 0 0 1 .177-1.1c.115-.34.276-.635.483-.886a2.16 2.16 0 0 1 .741-.58c.29-.139.61-.209.961-.209a2.37 2.37 0 0 1 .773.118 1.4 1.4 0 0 1 .585.365c.164.168.29.386.376.655s.128.589.128.972V82h-.998v-3.816c0-.304-.045-.547-.134-.73s-.22-.32-.392-.402-.383-.129-.633-.129-.473.052-.677.156a1.61 1.61 0 0 0-.52.429c-.144.183-.256.392-.339.628s-.118.48-.118.741zm7.708 3.231c-.404 0-.771-.068-1.1-.204a2.49 2.49 0 0 1-.843-.585c-.232-.25-.411-.547-.537-.891s-.187-.719-.187-1.127v-.225c0-.472.069-.893.209-1.261s.329-.687.569-.945a2.44 2.44 0 0 1 .816-.585 2.34 2.34 0 0 1 .944-.199c.415 0 .773.072 1.074.215s.553.344.746.601.336.555.429.902.14.719.14 1.127v.446h-4.337v-.811h3.344v-.075a2.47 2.47 0 0 0-.161-.751 1.36 1.36 0 0 0-.429-.601c-.197-.157-.466-.236-.806-.236a1.35 1.35 0 0 0-.622.145c-.19.093-.353.233-.489.419s-.241.413-.316.682a3.42 3.42 0 0 0-.113.929v.225c0 .275.037.535.113.778a1.97 1.97 0 0 0 .338.633 1.62 1.62 0 0 0 .542.429c.215.104.458.156.73.156.351 0 .648-.072.891-.215s.456-.334.639-.574l.601.478a2.78 2.78 0 0 1-.478.542c-.193.172-.431.311-.714.419s-.61.161-.993.161zm4.412-5.003V82h-.993v-5.808h.967l.026.912zm1.815-.945l-.006.923a1.42 1.42 0 0 0-.236-.032 2.49 2.49 0 0 0-.247-.011 1.59 1.59 0 0 0-.606.107c-.176.072-.324.172-.446.301a1.45 1.45 0 0 0-.29.462 2.24 2.24 0 0 0-.134.58l-.279.161a4.57 4.57 0 0 1 .102-.988c.072-.308.181-.58.327-.816s.333-.426.559-.558.501-.204.815-.204a1.32 1.32 0 0 1 .247.027c.093.014.158.031.194.048zm4.299 4.3a.83.83 0 0 0-.097-.397c-.06-.125-.187-.238-.381-.338s-.476-.193-.858-.268a6.79 6.79 0 0 1-.875-.242 2.66 2.66 0 0 1-.661-.338c-.178-.132-.316-.288-.413-.467s-.145-.388-.145-.628c0-.229.05-.445.15-.649s.249-.385.435-.542.417-.281.682-.37.56-.134.886-.134c.465 0 .862.082 1.191.247s.582.385.757.66a1.64 1.64 0 0 1 .263.907h-.993a.85.85 0 0 0-.145-.467c-.093-.154-.231-.281-.413-.381s-.399-.15-.66-.15c-.276 0-.5.043-.671.129a.86.86 0 0 0-.371.317.8.8 0 0 0-.112.408c0 .107.017.204.053.29a.65.65 0 0 0 .204.231 1.69 1.69 0 0 0 .408.193c.175.061.399.122.671.182.476.107.868.236 1.176.386s.536.335.687.553.225.483.225.794a1.52 1.52 0 0 1-.161.698 1.55 1.55 0 0 1-.456.547c-.197.15-.433.268-.709.354s-.578.123-.918.123c-.511 0-.944-.091-1.299-.274s-.622-.419-.805-.709a1.7 1.7 0 0 1-.273-.918h.998c.014.272.093.489.236.65s.319.27.526.338.413.097.617.097c.272 0 .5-.036.682-.107s.328-.17.424-.295a.68.68 0 0 0 .145-.429z"/><path d="M93.888 41.373L90.914 50h-1.798l3.746-9.953h1.148l-.123 1.326zM96.376 50l-2.981-8.627-.13-1.326h1.155L98.181 50h-1.805zm-.144-3.691v1.36h-5.414v-1.36h5.414zm6.166-3.705v1.203h-4.169v-1.203h4.169zm-2.966-1.811h1.647v7.164c0 .228.032.403.096.526a.51.51 0 0 0 .28.239 1.28 1.28 0 0 0 .417.062 2.53 2.53 0 0 0 .328-.02l.253-.041.007 1.258c-.137.041-.296.078-.479.109a3.5 3.5 0 0 1-.615.048c-.378 0-.713-.066-1.005-.198s-.519-.358-.683-.663-.246-.711-.246-1.217v-7.267zm7.629 1.811v1.203h-4.17v-1.203h4.17zm-2.967-1.811h1.647v7.164c0 .228.032.403.096.526a.51.51 0 0 0 .28.239 1.28 1.28 0 0 0 .417.062 2.53 2.53 0 0 0 .328-.02l.253-.041.007 1.258c-.137.041-.296.078-.478.109a3.52 3.52 0 0 1-.616.048c-.378 0-.713-.066-1.005-.198a1.48 1.48 0 0 1-.683-.663c-.164-.305-.246-.711-.246-1.217v-7.267zm7.499 9.345c-.547 0-1.042-.089-1.484-.267a3.28 3.28 0 0 1-1.121-.759c-.305-.324-.54-.704-.704-1.142a4 4 0 0 1-.246-1.415v-.273c0-.579.084-1.103.253-1.572a3.57 3.57 0 0 1 .704-1.203 3.02 3.02 0 0 1 1.067-.772c.41-.178.854-.267 1.333-.267.528 0 .991.089 1.387.267s.725.428.985.752.46.7.587 1.142c.133.442.199.93.199 1.463v.704h-5.715v-1.183h4.088v-.13a2.32 2.32 0 0 0-.178-.834c-.105-.26-.267-.469-.485-.629s-.511-.239-.875-.239c-.274 0-.518.059-.732.178a1.45 1.45 0 0 0-.526.499c-.141.219-.251.483-.328.793a4.45 4.45 0 0 0-.11 1.032v.273a3.04 3.04 0 0 0 .13.902c.091.273.224.513.397.718a1.88 1.88 0 0 0 .629.485c.246.114.526.171.84.171.397 0 .75-.08 1.06-.239a2.43 2.43 0 0 0 .807-.677l.868.841c-.16.232-.367.456-.622.67s-.568.38-.937.513-.788.198-1.271.198zm5.879-5.954V50h-1.648v-7.397h1.552l.096 1.579zm-.294 1.846l-.533-.007c.004-.524.077-1.005.218-1.442a3.56 3.56 0 0 1 .602-1.128c.26-.315.57-.556.93-.725s.761-.26 1.203-.26c.355 0 .676.05.964.15s.54.253.745.472.369.503.478.854.164.772.164 1.278V50h-1.654v-4.785c0-.355-.052-.636-.157-.841s-.249-.358-.445-.444-.43-.137-.717-.137-.536.059-.759.178a1.7 1.7 0 0 0-.568.485c-.15.205-.266.442-.348.711s-.123.556-.123.861zm10.965 2.441V39.5h1.654V50H128.3l-.157-1.531zm-4.813-2.085v-.144c0-.561.066-1.071.198-1.531s.324-.864.575-1.196a2.52 2.52 0 0 1 .916-.773c.36-.182.765-.273 1.216-.273s.839.087 1.176.26.624.422.861.745.427.702.568 1.148.241.934.301 1.477v.458c-.06.529-.16 1.012-.301 1.449s-.331.816-.568 1.135a2.45 2.45 0 0 1-.868.738c-.337.173-.731.26-1.182.26s-.85-.093-1.21-.28-.659-.449-.909-.786-.443-.734-.575-1.189-.198-.959-.198-1.497zm1.648-.144v.144c0 .337.029.652.088.943s.162.549.294.773.303.392.513.52a1.51 1.51 0 0 0 .766.185c.373 0 .681-.082.923-.246s.43-.385.567-.663.237-.597.287-.943v-1.237c-.027-.269-.084-.52-.171-.752s-.194-.435-.335-.608-.317-.314-.526-.41a1.65 1.65 0 0 0-.732-.15c-.3 0-.556.064-.765.191s-.383.303-.52.526a2.6 2.6 0 0 0-.294.779c-.064.296-.095.613-.095.95zm10.711 2.276v-3.527c0-.264-.047-.492-.143-.684s-.242-.34-.438-.444-.433-.157-.724-.157c-.269 0-.502.046-.697.137s-.349.214-.458.369-.165.33-.165.526h-1.64c0-.292.07-.574.212-.848a2.26 2.26 0 0 1 .615-.731 3.07 3.07 0 0 1 .964-.506 4.01 4.01 0 0 1 1.258-.185c.556 0 1.048.093 1.476.28s.773.469 1.019.848.376.843.376 1.408v3.288c0 .337.023.64.068.909s.121.494.212.69V50h-1.688a2.91 2.91 0 0 1-.185-.677 5.53 5.53 0 0 1-.062-.807zm.24-3.015l.013 1.018h-1.182c-.306 0-.574.03-.807.089a1.66 1.66 0 0 0-.581.246c-.155.109-.271.242-.349.397s-.116.33-.116.526.046.376.137.54.223.285.396.376.392.137.643.137c.337 0 .631-.068.882-.205s.456-.312.601-.513.224-.399.233-.581l.533.731a2.52 2.52 0 0 1-.28.602 2.92 2.92 0 0 1-.52.615c-.209.191-.462.349-.759.472-.291.123-.628.185-1.011.185-.483 0-.914-.096-1.292-.287s-.675-.458-.889-.786a2.04 2.04 0 0 1-.321-1.128c0-.392.073-.738.219-1.039s.369-.561.656-.766.647-.36 1.066-.465.898-.164 1.436-.164h1.292zm4.771-1.319V50h-1.647v-7.397h1.551l.096 1.579zm-.294 1.846l-.533-.007c.005-.524.078-1.005.219-1.442s.346-.813.601-1.128.57-.556.93-.725.761-.26 1.203-.26c.356 0 .677.05.964.15a1.75 1.75 0 0 1 .745.472c.21.219.369.503.479.854s.164.772.164 1.278V50h-1.655v-4.785c0-.355-.052-.636-.157-.841s-.248-.358-.444-.444-.431-.137-.718-.137-.535.059-.759.178a1.71 1.71 0 0 0-.567.485 2.36 2.36 0 0 0-.349.711c-.082.269-.123.556-.123.861zm9.475 2.796c.269 0 .51-.052.724-.157a1.37 1.37 0 0 0 .527-.451c.137-.191.212-.412.225-.663h1.552c-.009.478-.15.914-.424 1.306a2.93 2.93 0 0 1-1.087.936 3.27 3.27 0 0 1-1.497.342c-.565 0-1.057-.096-1.476-.287s-.768-.465-1.046-.807-.488-.736-.629-1.183a4.87 4.87 0 0 1-.205-1.436v-.239a4.87 4.87 0 0 1 .205-1.435c.141-.451.351-.848.629-1.19s.627-.608 1.046-.8.909-.294 1.47-.294c.592 0 1.112.118 1.558.355a2.62 2.62 0 0 1 1.053.977c.26.415.394.898.403 1.449h-1.552c-.013-.273-.082-.52-.205-.738a1.35 1.35 0 0 0-.506-.533 1.44 1.44 0 0 0-.772-.198c-.333 0-.608.068-.827.205s-.39.314-.513.547-.212.485-.266.773-.076.577-.076.882v.239c0 .305.025.602.076.889s.136.545.259.772c.128.223.301.403.52.54s.497.198.834.198zm7.554 1.313c-.547 0-1.042-.089-1.484-.267a3.28 3.28 0 0 1-1.121-.759c-.305-.324-.54-.704-.704-1.142a4 4 0 0 1-.246-1.415v-.273c0-.579.084-1.103.253-1.572s.403-.87.704-1.203.656-.595 1.066-.772.855-.267 1.333-.267c.529 0 .992.089 1.388.267s.725.428.984.752a3.1 3.1 0 0 1 .588 1.142c.132.442.199.93.199 1.463v.704h-5.715v-1.183h4.088v-.13a2.34 2.34 0 0 0-.178-.834c-.105-.26-.267-.469-.486-.629s-.51-.239-.875-.239c-.273 0-.517.059-.731.178a1.44 1.44 0 0 0-.526.499c-.142.219-.251.483-.328.793a4.45 4.45 0 0 0-.11 1.032v.273c0 .324.043.624.13.902a2.14 2.14 0 0 0 .397.718c.173.205.382.367.628.485s.527.171.841.171c.397 0 .75-.08 1.06-.239s.579-.385.806-.677l.869.841c-.16.232-.367.456-.622.67a3.13 3.13 0 0 1-.937.513c-.365.132-.788.198-1.271.198z"/></g><rect x="107" y="10" width="35" height="4" rx="2" fill="#e6e6e6"/><defs><linearGradient id="A" x1="-23.5" y1="-20.5" x2="153.5" y2="488.5" gradientUnits="userSpaceOnUse"><stop stop-color="#eee"/><stop offset="1" stop-color="#eee" stop-opacity="0"/></linearGradient><path id="B" d="M24.58 116.229h90.608a4.35 4.35 0 0 1 4.351 4.351v41.84a4.35 4.35 0 0 1-4.351 4.351H24.58a4.35 4.35 0 0 1-4.351-4.351v-41.84a4.35 4.35 0 0 1 4.351-4.351z"/><path id="C" d="M129 120.58a4.58 4.58 0 0 1 4.58-4.58h90.608a4.58 4.58 0 0 1 4.58 4.58v41.84a4.58 4.58 0 0 1-4.58 4.58H133.58a4.58 4.58 0 0 1-4.58-4.58v-41.84z"/><path id="D" d="M133.58 116.229h90.608a4.35 4.35 0 0 1 4.351 4.351v41.84a4.35 4.35 0 0 1-4.351 4.351H133.58a4.35 4.35 0 0 1-4.351-4.351v-41.84a4.35 4.35 0 0 1 4.351-4.351z"/></defs></svg>