<svg width="48" height="48" viewBox="0 0 48 48" fill="none" xmlns="http://www.w3.org/2000/svg">
<path d="M35.5206 27.5811C35.4271 27.5362 31.9278 25.8131 31.306 25.5893C31.0521 25.4981 30.7802 25.4091 30.4909 25.4091C30.0184 25.4091 29.6215 25.6446 29.3123 26.1072C28.9627 26.6267 27.9045 27.8637 27.5776 28.2332C27.5349 28.282 27.4766 28.3402 27.4417 28.3402C27.4104 28.3402 26.8688 28.1172 26.7049 28.046C22.951 26.4154 20.1017 22.4942 19.711 21.833C19.6552 21.7379 19.6529 21.6947 19.6524 21.6947C19.6662 21.6444 19.7924 21.5179 19.8575 21.4526C20.0481 21.264 20.2546 21.0154 20.4544 20.775C20.549 20.661 20.6438 20.547 20.7368 20.4394C21.0267 20.1022 21.1557 19.8404 21.3053 19.5371L21.3837 19.3795C21.749 18.6538 21.437 18.0413 21.3362 17.8435C21.2534 17.678 19.7759 14.112 19.6188 13.7373C19.241 12.8333 18.7418 12.4124 18.0482 12.4124C17.9838 12.4124 18.0482 12.4124 17.7783 12.4237C17.4496 12.4376 15.6597 12.6732 14.8683 13.1721C14.0291 13.7012 12.6094 15.3877 12.6094 18.3538C12.6094 21.0232 14.3034 23.5437 15.0307 24.5023C15.0488 24.5264 15.082 24.5755 15.1302 24.646C17.9156 28.7138 21.3879 31.7285 24.908 33.1346C28.2968 34.4883 29.9015 34.6448 30.8138 34.6448C30.814 34.6448 30.814 34.6448 30.814 34.6448C31.1974 34.6448 31.5042 34.6147 31.7749 34.588L31.9467 34.5717C33.1174 34.4679 35.69 33.1348 36.2752 31.5086C36.7362 30.2277 36.8578 28.8282 36.5511 28.3203C36.341 27.9749 35.979 27.8012 35.5206 27.5811Z" fill="#FFFFFF"/>
<path d="M24.426 0C11.4261 0 0.849938 10.4967 0.849938 23.3989C0.849938 27.5719 1.96672 31.6568 4.0823 35.2318L0.0330028 47.1765C-0.0424258 47.3992 0.0136781 47.6455 0.178405 47.8131C0.297314 47.9345 0.458613 48 0.62334 48C0.686457 48 0.750042 47.9905 0.812068 47.9707L13.2671 44.0129C16.6754 45.8339 20.5276 46.7952 24.4262 46.7952C37.4248 46.7953 48 36.2997 48 23.3989C48 10.4967 37.4248 0 24.426 0ZM24.426 41.9211C20.7576 41.9211 17.2045 40.8619 14.1503 38.8577C14.0476 38.7902 13.9284 38.7556 13.8084 38.7556C13.745 38.7556 13.6814 38.7653 13.6195 38.7849L7.38028 40.7682L9.39441 34.826C9.45955 34.6337 9.42698 34.4216 9.30698 34.2577C6.98116 31.0797 5.7517 27.3249 5.7517 23.3989C5.7517 13.1844 14.129 4.87418 24.4259 4.87418C34.7216 4.87418 43.0979 13.1844 43.0979 23.3989C43.098 33.6122 34.7219 41.9211 24.426 41.9211Z" fill="#FFFFFF"/>
</svg>
